<?xml version='1.0' encoding='utf-8'?>
<svg xmlns="http://www.w3.org/2000/svg" version="1.1" id="Layer_1" x="0px" y="0px" viewBox="0 0 5000 4124.619" enable-background="new 0 0 5000 4124.619"> <path d="M4998.884,2861.594c-10.515,0.215-16.785,31.15-8.141,40.172c6.279,6.553,0.252,2.233-1.327,6.347 c-0.914,2.381-6.736,2.907-8.862,0.8c-1.974-1.957-33.314-6.292-39.251-9.362c-2.316-1.198-5.372-2.171-6.789-2.157 c-6.077,0.049-40.396-12.909-46.696-12.909c-1.805,0-3.894-0.542-4.642-1.205c-5.669-5.023-29.473-5.872-52.913-1.887 c-62.429,10.614-11.378-1.065-164.345,31.614c-10.177,2.174-26.208,2.909-34.409,10.03c-8.043,6.985-9.67,7.396-22.452,5.676 c-22.064-2.969-6.4,3.029-25.48,3.029c-10.581,0-15.441,1.657-16.477,5.618c-0.428,1.636-1.716,2.974-2.862,2.974 c-1.146,0-7.095,2.578-13.22,5.728c-8.018,4.124-12.898,5.728-17.428,5.728c-3.46,0-8.366,0.866-10.9,1.924 c-10.679,4.457-25.481,1.129-17.895-4.023c1.02-0.692,17.601-3.841,31.187-5.922c15.14-2.319,24.231-6.319,27.1-11.923 c1.442-2.816,0.445-5.832-1.927-5.832c-0.988,0-11.084-2.595-22.436-5.767c-90.263-25.221-44.425-17.789-177.445,0.081 c-37.17,4.994-42.802,10.127-60.49,6.595c-14.769-2.95-32.344-3.56-35.65-5.318c-7.083-3.766-39.789-8.841-55.655-8.635 c-12.31,0.159-17.504-0.336-20.57-1.964c-5.507-2.923-9.049-2.741-13.408,0.687c-8.094,6.367-10.661,0.621-39.542-8.406 c-5.387-1.684-10.39-2.692-11.12-2.242c-2.475,1.529-39.197-7.156-42.353-10.017c-2.617-2.373-2.927-16.834-0.387-18.083 c1.799-0.884,13.526-3.176,33.347-6.517c7.842-1.322,17.914-15.401,12.049-16.843c-0.279-0.069-87.012-26.578-88.428-26.987 c-2.757-0.797-10.173-3.921-16.481-6.944c-12.372-5.928-12.377-5.928-31.492-2.038c-23.927,4.87-48.354,9.382-48.702,8.994 c-1.811-2.021-14.086-215.886-16.254-240.284c-1.141-12.848-0.161-18.89,2.394-14.756c8.4,13.592,52.708-4.81,114.115-20.479 c18.252-4.657,16.662-5.317,32.22-9.098c24.034-5.842,25.526-8.105,26.71-5.023c0.462,1.205,2.654,2.099,5.148,2.099 c10.042,0,0.715,10.395,36.879,1.002c26.377-6.851,26.138-6.747,25.089-10.936c-3.643-14.557-2.953-14.875,19.089-8.788 c36.353,10.038,41.825,11.902,43.358,14.767c0.803,1.5,2.999,2.522,5.42,2.522c5.693,0,7.445,2.817,8.209,13.193 c1.543,20.96,4.944,59.397,5.549,62.705c3.488,19.083,4.789,53.567,2.092,55.456c-1.561,1.093-2.837,3.194-2.837,4.668 c0,3.565-0.54,2.506-65.873,16.973c-23.981,5.31-104.485,23.939-151.079,33.039c-17.871,3.49-14.794,4.22-24.559,5.616 c-5.643,0.807-6.945,1.527-6.945,3.84c0,3.562,2.676,3.469,20.048-0.7c16.969-4.072,189.706-41.207,231.299-50.664l4.003,3.835 c7.007,6.713,16.019,4.813,16.019-3.378v-5.446c54.805-11.941,202.047-44.656,223.73-48.099c5.551-0.881,6.66-1.859,5.808-5.117 c-1.072-4.099-5.942-3.487-39.792,5.003c-18.969,4.757-23.631,3.197-23.631,4.841c0,0.687-3.061,1.626-6.802,2.087 c-13.432,1.653-144.402,31.271-148.516,32.448c-12.775,3.654-13.226,2.129-18.001-60.844c-2.01-26.525-5.533-57.844-5.354-72.338 c0.203-16.399-2.573-10.558-3.394-26.376l-0.515-9.928c65.872-15.938,90.934-17.823,90.934-44.552 c0-11.56-13.594-17.243-29.255-12.231c-3.714,1.188-39.614,9.941-58.728,14.318c-8.859,2.029-9.376-0.458-12.948-62.266 c-0.273-4.726-0.713-9.523-0.978-10.661c-0.842-3.624,29.208-8.63,115.513-33.701c12.113-3.519,10.829-2.377,25.06-6.813 c14.268-4.448,14.295-2.989,37.949-9.691c22.496-6.374,35.777-9.851,47.257-12.372c9.463-2.078,16.795-6.391,14.598-8.587 c-3.405-3.405-204.159,53.669-204.341,53.708c-17.069,3.727-24.479,8.036-39.941,7.559c-8.74-0.27-11.11,0.154-13.604,2.43 c-4.605,4.203-10.744,6.877-20.205,8.799c-0.146,0.03-201.699,50.141-205.516,50.141c-3.818,0-14.299,4.313-14.299,5.884 c0,1.946,10.082,1.523,17.999-0.756c10.027-2.886,28.828-6.288,32.838-7.94c3.118-1.284-12.608,3.317,182.468-44.56 c1.694,1.695,5.424,5.844,7.833,5.844c1.094,0,1.905,0.805,1.803,1.79c-0.53,5.113,6.232,65.361,6.232,65.505 c0,1.939-9.694,2.862-89.443,24.056c-9.116-7.67-9.456-9.137-16.438-1.733c-5.511,5.843-17.273,6.026-17.273,0.269 c0-5.526-8.109-8.541-12.137-4.513c-2.136,2.136-3.353,2.034-15.496-1.288c-7.248-1.983-15.307-4.052-17.909-4.596 c-6.386-1.337-5.062-4.039,2.697-5.504c3.481-0.657,15.995-3.659,27.809-6.671c81.099-20.673,81.864-18.374,81.131-22.374 c-1.056-5.764-1.311-3.499-23.134,1.656c-4.332,1.023-29.787,7.439-56.565,14.257c-51.297,13.06-51.873,13.136-67.305,8.854 c-6.055-1.68-7.23-2.571-7.613-5.772c-0.591-4.943-6.335-6.652-10.3-3.064c-2.421,2.191-3.606,2.291-9.609,0.81 c-17.494-4.316-17.385-4.261-21.134-10.659c-4.673-7.973-4.561-9.073,1.041-10.22c3.428-0.702,107.921-26.483,107.932-26.483 c0.299,0,0.543-1.289,0.543-2.864c0-3.627,1.757-3.835-25.061,2.968c-12.602,3.197-27.009,6.741-32.016,7.876 c-12.944,2.936-8.807,3.129-18.467,4.889c-10.31,1.879-39.413,10.292-40.545,8.903c-0.452-0.554-3.303-10.996-6.336-23.204 c-18.514-74.522-34.002-106.261-53.519-109.676c-12.073-2.112-11.654-0.65-13.909-48.559c-0.482-10.237-1.148-19.053-1.481-19.591 c-1.863-3.013,3.215-2.545,5.765,0.531c23.481,28.336,50.672,55.604,55.189,64.043c1.852,3.46,6.933,3.982,8.14,0.836 c0.535-1.394-3.346-6.556-11.036-14.678c-14.535-15.353-47.42-52.942-54.702-62.526c-6.045-7.957-5.346-8.532-5.346-23.11 c23.689-17.886,24.482-19.299,27.867-14.133c2.698,4.117,17.086,19.841,27.082,29.596c12.355,12.057,31.103,7.958,35.326-7.725 c1.987-7.377-0.49-12.557-11.394-23.83c-4.792-4.954-8.711-9.303-8.711-9.666c0-0.693,20.276-0.66,37.087-0.66 c7.65,10.375,7.607,10.746,29.359,34.778c21.342,23.58,18.299,25.396,24.37,23.066c5.816-2.232,1.431-3.892-40.49-50.603 c-5.916-6.592-12.377-6.214,71.64-4.198c80.899,1.94,86.15,1.643,100.131-5.678c34.641-18.138,43.398-37.231,44.207-96.391 c0.14-10.252,14.359-11.719,87.064-8.979c27.055,1.02,29.839,1.943,18.373,6.089c-7.208,2.606-18.032,8.843-18.032,10.389 c0,3.899,22.95-4.688,29.731-11.125c5.978-5.674,57.21-2.258,104.163,0.263c-16.767,7.866-23.975,11.064-24.784,13.491 c-1.186,3.559,8.673,1.108,20.605-5.123c24.813-12.954,22.788-7.144,83.622-6.021c20.879,0.385,23.683,1.148,29.391,2.178 c-17.291,8.525-31.758,14.807-20.929,14.807c6.566,0,11.967-3.384,32.385-15.036c2.644,0.027,99.627,1.151,99.455,3.38 c-0.115,1.488-25.705,12.223-25.705,14.464c0,6.77,30.638-10.701,37.949-14.541c94.426,2.482,70.835,2.879,88.746,3.032 c14.28,0.122,14.287,1.27,0.04,6.524c-8.96,3.304-13.824,6.393-12.765,8.106c1.425,2.306,10.922-0.453,23.645-6.869 c11.686-5.894,12.975-6.219,24.595-6.219c32.257,0,1.907-6.594,31.495-22.912c26.72-14.737,27.976-15.752,19.485-15.752 c-4.363,0-23.379,9.445-27.685,13.751c-1.178,1.178-6.23,2.485-11.512,2.978c-10.547,0.985-10.227,1.847-16.329,9.098 c-98.553-1.894-95.021-0.826-90.032-6.564c2.942-3.384,22.703-16.319,25.143-16.458c1.12-0.064,6.613-4.836,10.939-8.534h-5.116 c-8.04,0-14.274,7.16-16.42,7.16c-1.847,0-15.982,12.813-30.983,12.873c-2.166,0.008-3.938,0.706-3.938,1.55 c0,5.828-2.683,6.113-47.618,5.067c-23.696-0.552-43.675-1.369-44.398-1.816c-1.319-0.816,7.142-10.514,9.173-10.514 c2.288,0,26.983-16.719,26.06-17.642c-3.151-3.151-9.006-0.476-29.138,13.309c-1.969,1.349-7.996,3.328-13.393,4.4 c-7.919,1.573-10.051,2.575-11.047,5.197c-2.122,5.58-5.205,5.682-72.938,2.398c-21.862-1.06-22.619-2.472-6.444-12.035 c23.28-13.764,30.208-20.125,18.354-16.852c-4.734,1.307-23.03,11.784-24.797,14.199c-1.16,1.586-11.76,4.14-17.203,4.154 c-3.767,0.006-5.386,0.788-6.444,3.113c-2.742,6.021-4.188,6.153-48.077,4.368c-38.256-1.556-46.784-2.415-41.764-4.208 c0.984-0.352,1.815-1.391,1.846-2.31c0.031-0.919,5.874-5.215,12.985-9.547c14.97-9.12,17.189-11.594,20.313-14.32 c-6.789,0-7.987-1.226-23.222,8.828c-11.494,7.585-14.567,8.946-21.833,9.666c-7.16,0.71-8.731,1.388-10.248,4.419l-1.792,3.58 c-44.781-0.372-88.409-0.69-89.068-1.349c-4.801-4.801,33.893-23.73,33.996-27.829c0.081-3.128-7.243-0.974-16.227,4.773 c-10.475,6.7-9.415,4.432-11.489,7.173c-1.506,1.991-16.035,6.492-20.953,6.492c-1.262,0-3.765,1.99-5.563,4.421 c-3.147,4.257-3.568,4.39-11.368,3.584c-4.455-0.46-23.765-1.092-42.912-1.404c-43.748-0.713-43.729-0.689-14.972-19.021 c8.085-5.154,14.7-9.945,14.7-10.647c0-2.997-8.262-0.883-15.647,4.005c-16.516,10.929-18.374,12.003-23.132,13.368 c-6.975,2-14.205,0.896-14.205,2.612c0,6.405-17.959,9.65-21.838,3.946c-0.753-1.107-1.45-0.996-2.332,0.371 c-1.698,2.632-34.724,1.804-35.624-0.894c-0.755-2.265-4.231-2.307-4.98-0.06c-0.62,1.861-28.308,3.725-28.308,1.906 c0-3.446,21.562-20.449,34.529-27.229c4.003-2.093,3.286-3.599-1.712-3.599c-3.084,0-8.542,2.817-18.09,9.337 c-10.922,7.458-15.465,9.677-22.572,11.025c-9.586,1.818-9.445,2.641-13.465,9.646c-65.311-1.289-88.326-1.816-88.712-2.146 c-2.556-2.189,12.013-13.289,30.446-23.198c6.499-3.493,7.448-6.096,2.223-6.096c-3.239,0-8.232,2.343-16.286,7.641 c-16.031,10.547-17.207,11.081-25.645,11.658c-8.395,0.573-7.949,1.403-11.979,8.626h-37c-2.191-32.466-4.62-68.277-9.317-146.783 c-3.212-53.691-4.133-52.317-0.193-53.347c3.023-0.791,4.417-5.366,1.634-5.366c-3.464,0-1.466-8.529,2.215-9.453 c4.623-1.16,5.312-0.41,5.703,6.212c0.272,4.598,0.853,5.454,3.954,5.831c4.53,0.55,6.05-3.272,4.104-10.32 c-1.672-6.055-1.234-6.574,4.735-5.605c2.838,0.46,5.115,0.095,5.744-0.922c1.428-2.31,0.592-2.857-5.09-3.328 c-7.654-0.634-7.315-10.884,0.596-18.074c9.252-8.407,22.577-30.882,25.542-43.079c5.013-20.626,4.702-24.637,6.199-52.292 c3.013-0.291,9.308-0.306,9.308-3.039c0-1.178-0.644-1.744-1.432-1.257c-0.788,0.487-1.432-0.041-1.432-1.172 c0-1.132-0.996-2.883-2.212-3.893c-1.784-1.481-2.028-3.705-1.261-11.49c0.884-8.972,0.729-9.773-2.196-11.338 c-4.513-2.415-7.219-0.82-7.219,4.255c0,4.997-1.184,4.614-8.936,6.164l1,18.083c2.23,40.315-15.606,93.188-31.436,93.188 c-1.055,0-2.133,0.617-2.395,1.372c-0.546,1.569-8.384,1.885-13.365,2.208c-0.012-0.172-36.197-539.444-38.37-585.949 c7.888,0.875,19.604,2.126,31.209,3.766c26.972,3.811,45.109,3.58,45.109-0.575c0-3.241-11.268-4.966-68.021-10.413 c-11.621-1.115-10.592-1.386-10.463-17.836c30.111,3.056,42.353,4.326,78.484,8.837c23.56,2.941,54.417,4.997,54.417,7.309 c0,1.41,13.502,5.583,18.065,5.583c2.454,0,3.333,0.942,3.678,3.938c0.613,5.329,10.725,6.555,15.411,1.869 c3.294-3.294,39.662-4.366,56.022-1.651c10.689,1.773,283.557,37.275,336.824,43.78c23.881,2.917,12.376,2.618,34.691,4.975 c66.068,6.978,85.206,15.403,85.206,5.017c0-4.095-1.163-4.426-19.716-5.625c-9.286-0.6-305.207-39.494-305.353-39.514 c-91.751-12.82-153.252-17.891-157.523-22.921c-3.254-3.832-13.892-2.797-30.073-5.848c0-36.574-0.282-51.329,1.79-51.299 c7.777,0.113,65.432,11.042,78.104,7.648c8.515-2.281-1.417-6.388-21.897-9.054c-27.775-3.617-12.24-1.967-57.997-7.722 c0-9.702-0.506-69.178,1.414-70.364c1.677-1.037,39.94,3.056,47.544,5.085c8.124,2.169,28.137,2.293,34.099,3.776 c4.549,1.131,4.178,0.994,15.036,2.376c20.296,2.586,18.517,3.664,52.269,7.362c56.967,6.24,85.059,14.009,95.917,8.337 c10.489-5.478,14.138-16.881,8.757-27.362c-8.317-16.199-11.707-10.022-254.321-41.114l-0.775-59.663 c32.19,2.033,128.991,10.786,131.805,10.946c74.52,4.221,103.353,10.635,107.323,5.851c4.193-5.052,1.294-3.635-101.595-12.287 c-66.458-5.589-132.657-9.743-135.86-10.82c-3.44-1.157,0.486-24.794-0.236-42.861c-0.378-9.457-0.645-266.445-0.663-278.943 c5.658-0.086,40.752-0.924,44.393,0.46c7.645,2.908,29.813,4.869,66.589,10.9c38.102,6.248,63.848,8.356,70.169,11.039 c4.866,2.067,26.497,1.986,70.556,10.288c15.124,2.849,19.598,1.599,24.411,3.429c6.625,2.518,213.807,32.43,215.215,34.708 c1.875,3.034,10.528,1.23,11.435-2.385c1.626-6.478,0.119-7.558-11.846-8.481c-14.011-1.081-447.252-69.568-454.708-69.568 c-2.833,0-5.552-1.265-7.698-3.58c-2.638-2.847-4.705-3.58-10.097-3.58c-9.694,0-26.739-6.334-31.118-5.143 c-1.678,0.457-6.443,0.085-10.589-0.825c-6.032-1.325-8.252-1.273-11.121,0.263c-5.865,3.138-19.006-0.965-54.375-5.628 c-0.146-0.019-129.805-18.327-137.841-19.578c-4.417-0.687-4.66-1.042-4.614-6.745c0.143-17.763-32.836-356.559-32.925-377.272 c-0.067-16.144-2.216-2.727-3.344-25.776c-0.749-15.313-13.826-153.413-13.867-159.671c-0.018-4.137-6.956-6.163-7.355-2.148 c-1.021,10.286,46.53,546.075,47.466,554.333c2.427,21.41,3.39,14.755-27.24,11.616c-9.373-0.96-57.247-7.985-197.619-28.02 c-38.679-5.518-44.393-9.666-44.393,0.33c0,6.565,0.316,2.496,28.791,6.909c0.145,0.022,219.204,30.762,221.098,31.022 c23.281,3.194,21.401,1.075,23.375,26.335c13.827,176.839,28.014,286.527,22.745,289.475c-6.82,3.817-7.538,6.216-2,6.682 c6.112,0.514,5.283,0.13,5.283,12.999l-26.493,13.275c-27.581-0.059-179.457-0.241-197.619-0.947 c-128.223-4.989-347.833,4.909-119.216,5.102c161.539,0.137,239.459,2.709,302.157,2.766c22.456,0.021,10.051,1.045,21.506,6.458 c8.632,4.079,4.928,3.356,7.364,21.897c1.163,8.857-4.587,18.062-10.721,17.162c-2.302-0.338-4.186,0.016-4.186,0.786 c0,3.892-129.622-10.936-352.278-28.269c-52.293-4.071-51.042-4.135-58.709,3.031c-11.236,10.501-4.049,29.727,12.498,33.436 c15.034,3.37,387.034,29.775,387.034,31.405c0,1.791-6.455,7.042-12.912,10.505c-3.531,1.893-12.22,6.53-19.309,10.303 c-17.267,9.192-17.037,10.727-18.474,10.727c-1.534,0-28.031,15.752-29.536,15.752c-0.574,0-1.741,0.84-2.593,1.867 c-2.595,3.128-12.108,1.323-11.207-2.126c0.427-1.632-0.114-3.104-1.31-3.563c-1.12-0.43-2.037-1.733-2.037-2.896 c0-2.768-3.706-1.59-3.216,1.25c0.385,2.229-3.693,4.75-9.672,5.981c-25.726,5.298-313.678-40.722-350.13-47.077 c-53.773-9.375-72.548-10.995-73.431-6.337c-0.325,1.713,1.84,2.65,9.295,4.024c78.271,14.427,279.013,46.102,363.429,54.582 c39.463,3.963,22.972,3.929,41.245,9.954c7.012,2.312-27.51,27.3-37.717,27.3c-0.759,0-1.38,0.644-1.38,1.432 s-0.817,1.432-1.815,1.432c-0.999,0-4.06,1.519-6.802,3.375c-8.86,5.997-16.776,8.293-35.8,21.124 c-70.312-8.037-63.701-10.336-63.701,3.366c27.778,0.384,47.973,2.698,47.973,3.533c0,0.514-3.658,3.036-8.13,5.604 c-9.762,5.608-17.148,5.869-16.589,0.588c0.251-2.375-0.407-3.222-2.506-3.222c-1.566,0-2.847-0.733-2.847-1.627 c0-0.895-1.631,0.004-3.625,1.997c-5.69,5.69-8.124,5.851-47.132,3.112c-7.044-0.495-14.336-1.48-16.204-2.19 c-5.509-2.095,28.172,5.369-297.49-35.788c-35.684-4.512-64.151-0.641-31.863,4.332c42.231,6.505,321.124,39.361,330.44,40.365 c36.891,3.977,28.658,4.844,46.183,10.6c7.737,2.541,8.234,2.98,8.234,7.27c0,5.218,8.66,7.499,14.837,3.906 c4.856-2.823,9.864-4.461,11.011-6.316c1.892-3.062,18.862-4.642,32.116-2.991c0.144,0.018,235.059,26.019,240.242,26.019 c8.435,0,7.786-1.879,9.656,27.924c9.13,145.572,18.014,253.025,15.596,253.946c-1.947,0.742-1.475,9.059,0.657,11.582 c2.953,3.496,19.376,269.962,19.385,270.121c-22.875,15.343-39.247,32.149-42.673,32.149c-1.654,0,1.756-0.785-14.703,13.29 c-6.849,5.857-14.156,12.673-16.238,15.148c-5.382,6.396-18.745-2.553-27.859-18.657c-1.19-2.103-4.328-7.458-6.972-11.899 c-4.344-7.297-5.236-13.285-1.161-7.795c0.92,1.239,3.445,3.407,5.611,4.816c9.579,6.235,3.423-3.338-11.933-18.555 c-15.004-14.869-22.002-23.742-27.54-34.922c-3.309-6.681-3.134-6.795,2.648-1.718c5.77,5.066,6.394,5.287,6.394,2.263 c0-4.054-42.961-46.022-42.961-55.149c0-1.282,0.78-1.12,2.618,0.544c3.305,2.991,5.819,3.047,5.39,0.12 c-0.271-1.847-13.744-17.241-27.377-31.28c-3.377-3.478-11.188-14.9-14.286-20.89c-3.112-6.019-2.548-8.534,0.883-3.935 c2.923,3.918,6.995,5.322,6.995,2.412c0-2.504-3.141-7.656-5.834-9.568c-5.708-4.053-31.585-33.896-34.826-40.164 c-2.903-5.615-2.919-6.846-0.05-3.977c3.259,3.259,15.662,7.361-11.558-20.97c-8.663-9.017-17.588-19.769-19.832-23.893 c-3.895-7.158-4.225-11.17-0.622-7.567c2.711,2.711,4.263,1.964,3.176-1.528c-0.552-1.772-7.845-10.506-16.207-19.409 c-18.396-19.587-15.774-17.4-22.035-27.103c-2.15-3.332-3.909-6.715-3.909-7.518c0-0.803-0.644-1.46-1.432-1.46 c-0.788,0-1.432-0.999-1.432-2.221c0-1.712,1.118-1.368,4.883,1.504c14.672,11.191,6.384-1.806-15.442-24.215 c-8.37-8.593-15.218-16.208-15.218-16.922c0-1.745-5.312-7.521-11.338-18.929c-9.177-17.372-17.118-10.497-47.375-47.222 c-19.984-24.256-22.513-26.363-21.084-17.562c0.686,4.225,3.054,7.516,14.693,20.418c4.223,4.682,16.045,21.017,24.846,30.836 c6.28,7.005,6.478,8.979,0.481,4.778c-8.19-5.736-2.253,6.806,8.85,18.697c3.677,3.938,7.719,9.094,8.983,11.456 c4.106,7.68,4.198,3.21,14.672,26.511c6.233,13.869,29.167,32.785,32.296,51.304c0.559,3.308,1.763,6.823,2.676,7.811 c40.626,43.984,22.169,36.256,44.021,63.349c13.365,16.57,19.994,27.181,22.206,35.542c2.98,11.261,4.655,9.028,24.021,33.867 c4.67,5.99,9.522,16.071,10.412,21.635c0.747,4.672,2.675,8.055,7.652,13.428c13.838,14.937,15.779,17.251,15.779,18.877 c0.004,0.919,0.523,1.885,1.154,2.148c2.166,0.901,8.742,14.2,7.99,16.16c-0.979,2.552,2.626,9.439,7.225,13.803 c3.167,3.005,3.64,4.664,3.662,12.831c0.014,5.256,0.766,10.121,1.712,11.067c1.671,1.671-3.145,7.478-6.203,7.478 c-2.963,0-0.807,3.266,3.14,4.756c2.449,0.924,4.591,2.906,4.895,4.53c3.631,19.304,5.419,74.013,53.294,76.332 c18.152,0.879,20.379,3.114,21.168,21.244c0.307,7.044,1.185,14.397,1.952,16.34c0.02,0.05,7.42,23.928,11.066,35.037 c8.261,25.172,7.81,31.232,9.085,32.221c2.631,2.04,5.757,25.224,15.848,46.144c4.505,9.339,4.849,8.614-7.863,16.558 c-4.839,3.024-9.923,4.824-15.463,5.475c-9.288,1.091-8.688,1.809-12.485,9.151c-52.54,0-50.048-0.953-50.048-1.322 c0-2.04,8.572-10.134,10.731-10.134c1.055,0,2.133-0.521,2.396-1.158c1.2-2.912,27.137-14.403,20.929-16.785 c-7.117-2.731-29.245,19.376-46.166,19.376c-3.354,0-5.076,0.907-6.394,3.37c-1.801,3.364-15.138,5.222-37.483,5.222 c-9.685,0-0.528-9.846,18.754-20.165c5.382-2.88,11.456-7.686,11.456-9.063c0-2.509-11.779,0.224-14.32,3.322 c-1.039,1.267-12.789,8.912-18.491,12.032c-7.335,4.013-20.173,3.608-20.173,5.213c0,8.692-19.044,7.23-34.577,7.23l2.944-3.743 c2.707-3.442,14.615-11.906,17.004-12.087c2.171-0.164,16.598-10.764,17.213-12.647c0.669-2.05-9.54-1.099-11.173,1.041 c-1.089,1.427-12.332,6.7-16.471,10.28c-11.8,10.205-25.28,3.756-27.974,10.84c-1.935,5.09-27.16,10.243-27.16,5.549 c0-2.235,5.246-8.243,8.804-10.083c6.29-3.253,26.997-18.1,26.997-19.357c0-2.318-10.941,0.714-15.752,4.365 c-26.998,20.488-32.51,11.303-39.843,20.32c-3.42,4.206-17.438,6.301-17.438,2.607c0-2.808,12.186-11.611,30.797-22.247 c4.26-2.431,4.264-4.91,0.014-4.91c-3.194,0-15.534,5.88-17.917,8.537c-1.09,1.215-11.456,6.02-11.456,7.454 c0,1.474-20.048,2.535-20.048,4.033c0,2.668-7.367,8.616-10.672,8.616c-7.529,0-2.594-6.392,11.763-15.237 c13.722-8.453,20.389-13.36,20.389-15.006c0-2.6-5.631-1.109-13.073,3.461c-10.277,6.311-17.269,10.471-19.228,12.173 c-1.433,1.245-5.409,2.259-16.066,4.097c-9.038,1.559-4.964,8.994-14.318,9.057c-5.938,0.04,0.127-6.153,14.599-14.909 c16.328-9.879,20.403-13.709,14.584-13.709c-3.633,0-12.165,3.514-13.755,5.664c-1.931,2.613-17.122,11.52-19.646,11.52 c-2.539,0-2.965-1.168-3.585-9.829c-1.088-15.203-10.806-17.778-29.754-7.887l-7.876,4.112l-1.432,18.616 c-20.466-0.951-21.901-1.493-25.768,2.14c-3.671,3.449-35.932,4.044-39.243,0.724c-1.869-1.874-4.518-48.145-4.762-51.843 l4.706-4.814c4.938-5.052,13.549-11.363,15.503-11.363c1.617,0,5.634-5.728,8.155-5.728c2.42,0,2.667-2.171,14.544-8.697 c7.71-4.236,8.933-5.466,8.947-8.998c0.019-4.613-1.813-4.476-8.361,0.622c-6.278,4.888-23.103,15.642-24.473,15.642 c-0.703,0-1.493,0.483-1.756,1.074c-1.844,4.149-12.605,8.95-20.061,8.95h-7.974c-2.124,2.322-20.461,22.912-22.715,22.912 c-0.967,0-1.972,0.51-2.235,1.133c-0.635,1.509-33.736,21.78-35.564,21.78c-0.786,0-1.429,0.6-1.429,1.332 c0,0.733-1.45,1.538-3.222,1.79c-2.307,0.328-3.351,1.576-3.675,4.396c-0.608,5.287,1.692,5.058,10.798-1.074 c4.093-2.757,8.112-5.012,8.931-5.012c0.819,0,1.489-0.644,1.489-1.432s0.549-1.432,1.22-1.432s5.45-2.739,10.621-6.086 c14.614-9.461,18.414-11.526,26.082-14.175c12.559-4.339,6.297-9.244,15.485,100.225c-1.354,1.716-15.357,20.12-19.994,20.236 c-0.919,0.023-1.885,0.525-2.148,1.116c-0.263,0.591-3.055,2.35-6.205,3.909c-9.231,4.569-18.062,10.769-21.281,10.769 c-1.291,0-2.348,0.525-2.348,1.167c0,1.426-9.313,5.993-12.221,5.993c-1.451,0-2.1,1.573-2.1,5.096c0,5.206,0.691,5.368,5.728,1.344 c2.843-2.271,24.733-13.723,39.381-21.728c4.726-2.583,10.051-4.71,11.834-4.729c6.773-0.068,7.463-5.452,10.814-0.868 c3.916,5.356,12.437,1.929,12.437-5.002c0-3.876,0.725-5.986,2.258-6.574c1.242-0.477,2.806-2.31,3.477-4.074 c0.692-1.819,6.234-6.228,12.807-10.187c20.03-12.065,20.123-12.088,20.123-4.9c0,7.613,8.514,7.18,8.705-0.442 c0.063-2.475,0.438-3.695,0.836-2.711c2.733,6.772,26.101-8.992,32.001-12.868c45.206,39.689,94.853,100.978,165.934,124.792 c17.791,5.96,30.047,7.74,53.869,7.825c20.361,0.072,23.521-0.374,54.417-7.678c39.718-9.39,57.348-10.442,81.357-4.856 l10.602,2.466c-0.402,3.567-1.92,12.33,0.22,12.615c4.786,0.635,4.985,1.809,6.836-9.523l9.102,9.308 c12.574,12.859,27.209,45.838,27.209,61.312c0,2.193,0.605,4.6,1.345,5.348c0.74,0.748,2.388,8.127,3.663,16.397 c10.167,65.94,6.114,30.848,15.949,94.26c-21.586,4.665-43.13,8.842-61.053,13.144c-24.928,5.984-28.541,6.191-45.351,2.606 c-6.725-1.434-7.38-1.92-7.16-5.314c0.301-4.642-5.031-5.958-9.127-2.251c-3.065,2.774-2.266,2.87-31.443-3.785 c-38.296-8.735-19.818-6.219,10.74-13.434c0.145-0.034,85.866-19.353,87.158-19.353c2.979,0,5.241-3.357,3.816-5.663 c-2.065-3.342-4.392,0.89-56.605,11.441c-70.003,14.147-77.444,19.794-89.179,16.479c-13.238-3.739-15.113-2.77-13.855-6.732 c1.761-5.549-4.72-7.31-9.201-2.5c-2.685,2.882-3.1,2.917-10.438,0.861c-35.631-9.979-53.523-9.385-25.542-14.378 c33.377-5.956,102.517-20.08,103.75-21.193c6.574-5.936-2.497-5.083-47.901,4.508c-19.387,4.095-24.062,3.787-59.429,11.641 c-28.386,6.303-47.745,5.295-49.168-2.561c-1.135-6.266-8.45-8.049-12.998-3.167l-2.848,3.057l-14.034-3.721 c-32.548-8.631-48.681-7.366-16.897-13.176c17.038-3.114,13.287-3.79,35.084-8.461c24.962-5.348,43.986-9.982,52.258-11.484 c7.17-1.301,7.955-1.798,6.955-4.404c-0.914-2.381-6.654-2.736-12.817-0.793c-7.205,2.272-47.884,11.029-92.763,21.809 c-24.092,5.787-40.092,4.153-44.594-4.554c-2.427-4.694-6.929-5.633-9.028-1.883c-2.442,4.363-14.215-0.379-42.095-5.785 c-15.384-2.983-16.158-2.711,49.002-17.251c46.984-10.484,54.417-10.272,54.417-15.392c0-2.473-0.59-2.751-3.938-1.857 c-6.549,1.749-70.672,15.196-99.168,22.378c-23.694,5.971-50.592,5.387-48.124-1.045c2.146-5.594-5.296-8.825-9.278-4.027 c-4.872,5.87-34.594-6.08-46.778-6.483c-4.215-0.139-4.329-2.683,0-3.595c6.618-1.395,113.696-22.213,118.759-23.089 c5.541-0.959,7.434-3.179,5.449-6.391c-1.858-3.006-5.491,0.241-18.596,2.175c-13.281,1.961-3.785,1.722-45.825,9.393 c-12.857,2.346-33.51,6.543-70.591,14.347c-10.452,2.199-31.872-1.552-33.226-5.82c-2.181-6.873-9.646-8.598-11.529-2.665 c-0.491,1.548-2.446,3.404-4.344,4.125c-3.936,1.497-3.384,2.588-2.748,14.745c-18.836,3.969-134.586,28.403-153.788,31.002 c-8.644,1.17-12.167,3.228-11.09,6.478c0.61,1.843,4.955,1.564,17.379-1.115c14.986-3.232,43.873-8.529,90.218-18.258 c50.644-10.632,53.763-11.183,63.821-11.281c5.319-0.052,11.279-1.027,13.72-2.245c6.274-3.129,5.681-0.954,33.552,5.016 c18.274,3.914,41.953,9.985,44.977,9.985c8.142,0-0.118,4.11-15.375,7.651c-25.009,5.804-64.61,15.251-71.959,16.185 c-3.15,0.4-7.017,1.266-8.592,1.924c-5.061,2.113-58.046,11.882-61.01,13.713c-3.825,2.364-1.112,5.208,4.087,4.285 c14.885-2.644,109.891-23.501,134.968-29.629c16.574-4.051,32.96-3.409,39.47-5.763c8.049-2.911,38.164,6.915,73.302,13.597 c9.12,1.734,9.805,4.61,1.432,6.02c-10.353,1.743-120.161,25.938-138.164,28.72c-6.96,1.075-10.778,4.274-6.884,5.768 c8.132,3.12,126.888-27.745,154.962-28.853c25.804-1.018,7.147-8.725,59.181,5.073c2.757,0.731,9.845,2.386,15.752,3.677 c26.296,5.75,27.113,6.886,7.798,10.85c-16.354,3.356-132.153,30.948-137.754,32.031c-4.496,0.869-6.181,3.856-3.211,5.692 c0.794,0.491,9.528-1.108,19.408-3.553c48.074-11.895,122.133-27.486,124.938-29.22c2.495-1.542,21.866-0.239,28.201-3.299 c6.26-3.024,10.522,0.06,64.366,11.857c23.126,5.067,23.032,6.711-0.64,11.25c-12.748,2.445-14.846,2.904-52.985,11.588 c-85.945,19.57-85.851,17.417-86.951,20.286c-1.736,4.524,2.033,4.818,16.911,1.316c12.932-3.044,46.968-10.632,119.445-26.629 c27.264-6.018,36.197-3.452,38.51-5.764c1.817-1.817,11.13-1.878,15.482-0.102c1.809,0.739,14.889,4.03,29.066,7.315 c36.77,8.519,36.517,8.446,36.517,10.545c0,1.253-4.059,2.685-11.814,4.169c-3.656,0.7-125.503,28.145-133.521,29.892 c-10.53,2.294-14.14,7.985-4.098,6.459c30.806-4.679,138.698-33.093,154.446-32.649c5.464,0.154,10.548-0.639,13.965-2.179 c9.218-4.153,1.205-0.285,21.119,4.455c18.853,4.487,40.686,10.746,48.176,10.746c4.975,0,14.171,4.13,9.463,4.25 c-1.898,0.048-2.369,4.032-0.921,7.804c1.169,3.048,5.215,2.852,12.357-0.599c13.031-6.296,22.982-0.541,31.167,3.435 c0,3.923-0.217,22.973,0.827,25.695c1.108,2.886-3.075,4.962-14.851,7.37c-17.495,3.576-56.432,13.825-88.008,20.334 c-8.882,1.831-11.098,2.802-11.098,4.863c0,3.748,1.338,4.042,9.308,2.04c26.684-6.699,89.706-21.106,97.878-23.787 c7.041-2.31,6.826-5.255,5.719,78.192c-1.117,84.194,0.724,229.969,3.02,239.148c2.599,10.391,1.979,18.359-1.363,17.486 c-1.861-0.487-2.864-0.044-2.864,1.265c0,4.037-4.321,1.875-6.708-3.356c-1.347-2.954-2.698-5.854-3.002-6.444 c-0.648-1.259,3.982-2.115,3.982,1.623c0,6.341,5.006,4.202,5.19-2.217c0.139-4.856-0.33-6.208-2.156-6.208 c-2.832,0-6.527-7.749-5.264-11.041c0.604-1.575-0.422-3.429-3.064-5.536c-3.251-2.592-3.944-4.236-3.819-9.048 c0.124-4.705-0.347-5.88-2.353-5.88c-3.013,0-6.379-7.341-5.285-11.525c0.565-2.16-0.106-3.287-2.499-4.197 c-8.435-3.207-2.69-15.783-7.137-15.783c-2.539,0-6.687-7.999-5.607-10.813c0.464-1.208-1.11-3.853-3.773-6.342 c-3.855-3.602-4.421-4.944-3.619-8.593c0.691-3.148,0.423-4.325-0.986-4.325c-2.433,0-7.535-9.244-6.25-11.323 c1.299-2.102-1.968-6.897-2.032-5.145c-0.051,1.379-6.18-5.298-4.943-11.098c0.616-2.886,0.28-3.938-1.257-3.938 c-3.371,0-6.402-5.962-5.647-11.106c0.815-5.555-0.429-5.78-12.796-2.31c-21.791,6.115,7.266,16.438-4.032,27.736 c-1.575,1.575-2.864,3.412-2.864,4.083c0,5.419-16.977,23.378-26.492,28.025c-16.888,8.247-14.104,6.683,1.872,42.358 c6.471,14.45,39.87,87.039,45.58,96.118c-0.665-1.377-0.176-3.072,2.059-4.948c0.806-0.677,21.243-11.394,22.458-12.034 c5.629,11.803,6.475,9.572-2.64,16.777c-6.753,5.338-18.554,4.5-21.479,0.827c0.041,0.063,2.372,3.578,3.164,4.771 c-4.237,0.795-8.51,1.843-16.65,1.33c-8.154-0.514-7.713,1.011-5.728-19.783c1.099-11.51-2.115-11.51-3.944,0 c-1.502,9.454-1.31,9.029-7.179,15.925c-3.759,4.417-7.835,4.268-18.225,5.42c-0.213-10.911-1.081-34.264,2.185-43.884 c3.431-10.106,4.475-20.299,1.798-17.557c-3.187,3.263-6.676,14.039-7.65,23.628c-1.239,12.199-2.603,11.297-2.178,16.684 c0.337,4.281-7.24,7.985-12.753,6.235c-3.176-1.008-4.03,1.857-1.35,4.536c1.875,1.875,0.866,8.55,0.612,11.209l-19.053,0.841 c-0.484-20.688-2.234-26.911,4.103-44.759c4.963-13.979,1.227-23.74-2.637-8.078c-3.131,12.696-5.275,12.221-6.697,25.49 c-1.426,13.31-5.58,16.362-13.664,10.038c-7.003-5.478-9.936-2.436-3.448,3.577l3.712,3.44l-3.26,5.8 c-4.534,8.068-10.708,8.517-9.437,0.687c0.456-2.812,0.115-6.84-0.76-8.95c-2.037-4.916-1.285-3.841,1.112-19.59 c3.287-21.593,6.368-24.186,3.881-26.673c-1.737-1.737-6.12,6.593-6.12,11.632c0,3.785-4.296,12.081-4.296,21.347 c0,16.157-11.456,13.505-11.456,11.595c0-0.788-0.951-1.432-2.113-1.432c-1.625,0-1.818,0.776-0.833,3.365 c2.043,5.374-3.581,15.252-8.682,15.252c-3.712,0-3.931-0.369-4.037-6.802c-0.318-19.286,0.311-30.542,2.141-38.307 c2.352-9.978,2.634-15.555,0.727-14.376c-3.117,1.927-5.573,10.009-7.263,23.904c-2.501,20.567-4.64,23.359-14.666,19.144 c-3.722-1.564-3.311,4.45,0.441,6.458c3.47,1.857,2.656,4.584,2.064,10.695c-61.46,1.722-62.682,2.842-59.435-4.997 c1.408-3.399,1.457-5.28,0.207-8.023c-2.013-4.419-2.171-20.633-0.2-20.633c2.057,0,0.822-11.456,2.819-11.456 c0.763,0,1.013-0.975,0.556-2.166c-0.457-1.192-0.093-3.056,0.809-4.143c2.334-2.813,2.89-12.307,0.72-12.307 c-2.065,0-2.642,1.359-7.296,17.184c-1.969,6.695-3.548,15.58-3.511,19.744c0.184,20.417-16.459,8.796-14.56,16.057 c0.412,1.575,1.679,2.864,2.816,2.864c2.564,0,1.683,4.579,1.178,10.598c-10.752,0.169-55.492,0.521-60.185,2.305 c-13.11,4.984-9.911-1.243-10.874-17.199c-0.558-9.242,4.85-44.095-2.414-42.661c-2.59,0.511-3.044,6.431-1.328,17.342 c0.733,4.659,0.326,8.88-2.431,25.25c-0.517,3.07-7.912,4.584-13.476,2.761c-8.048-2.638-10.145,2.946-2.235,5.953 c3.605,1.371,4.883,7.48,1.944,9.296c-2.588,1.599-63.462,3.952-66.524,4.067c-1.469-20.616-2.253-29.265,2.817-45.505 c1.207-3.866,2.195-8.216,2.195-9.666c0-3.354-3.709-3.456-4.735-0.13c-2.764,8.953-8.083,19.34-8.123,30.824 c-0.034,9.414-4.082,12.939-11.155,9.716c-4.792-2.183-6.059-1.894-6.059,1.382c0,1.775,1.388,3.427,3.58,4.261 c4.16,1.582,3.58,3.962,3.58,9.655c-35.601,2.216-68.152,3.827-70.885,3.907c-1.416,0.042-2.44-10.428-2.377-24.302 c0.037-8.157,2.891-23.671,4.728-25.705c1.635-1.81,1.574-8.997-0.084-10.022c-2.271-1.404-8.393,21.185-9.683,35.727 c-0.349,3.938-0.898,7.966-1.219,8.95c-0.701,2.151-7.626,2.343-12.853,0.355c-4.99-1.897-4.642,4.232,0.365,6.428 c3.742,1.642,3.222,4.698,3.222,9.029c-35.139,1.576-36.81,1.649-86.203,3.886c0.272-2.026,1.801-10.525,0.048-11.609 c-0.766-0.474-1.078-1.684-0.692-2.69c0.386-1.006,0.109-2.421-0.615-3.146c-1.959-1.959,0.717-20.273,4.053-27.732 c4.688-10.484,5.405-17.124,1.849-17.124c-2.623,0-3.74,2.243-3.071,6.169c0.109,0.636-0.847,3.536-2.124,6.444 c-3.542,8.066-4.537,9.329-5.556,19.607c-2.067,20.823-3.186,22.357-11.185,15.33c-4.259-3.742-6.704,0.214-2.74,4.434 c3.478,3.702,4.081,8.493,1.342,10.654c-0.985,0.777-14.517,1.819-30.073,2.316c-28.964,0.925-31.573,0.487-26.61-4.477 c1.275-1.275,1.275-2.998,0-7.255c-2.941-9.817-1.144-24.999,4.132-34.902c2.549-4.785,3.413-14.472,1.225-13.743 c-3.201,1.067-11.326,27.113-11.326,36.306c0,11.136-4.592,16.961-9.5,12.052c-3.699-3.699-16.276-4.05-16.276-0.454 c0,1.852,0.805,3.441,1.79,3.531c3.837,0.354,2.315,0.697,8.487,1.049c6.377,0.363,6.583,10.242,0.214,10.242 c-6.065,0-4.33,12.005,1.822,12.604c11.039,1.076-4.084,30.793,1.969,40.368c5.286,8.362,6.248-21.965,7.641-41.076 c54.631-1.58,67.352-1.83,67.559-1.551c0.161,0.217-0.113,8.45-0.611,18.295c-0.996,19.726-0.69,22.912,2.201,22.912 c2.423,0,2.834-2.076,4.797-24.26c1.885-21.294-4.885-17.992,40.887-19.945c54.529-2.326,59.805-2.247,58.889,0.886 c-2.313,7.911-2.605,23.413-11.508,31.754c-4.084,3.827-4.738,7.493-1.774,9.952c4.102,3.405,13.521-12.595,16.245-27.594 c1.159-6.384,2.389-13.056,2.733-14.828c0.838-4.314,0.344-2.462,32.792-4.563c23.094-1.495,39.231-1.873,51.485-2.24 c-0.17,2.409-0.612,12.516-2.049,14.32c-1.589,1.995-1.793,9.501-4.322,19.747c-1.316,5.333-1.306,7.324,0.043,8.95 c2.656,3.201,3.868,2.532,4.648-2.563c2.231-14.574,5.063-13.481,8.567-41.529c29.641,2.121,7.629-0.122,42.914-1.654 c25.19-1.093,30.733-1.934,37.285-2.662c-3.083,15.833-2.921,29.891-4.592,33.314c-1.827,3.741-0.985,10.74,1.292,10.74 c3.896,0,7.004-39.077,7.443-43.677c32.181-0.954,12.065,0.967,54.051-1.419c28.957-1.645,31.747-1.263,28.957,3.95 c-1.945,3.634-2.599,18.046-3.7,30.03c-0.498,5.42,1.044,9.059,3.007,7.096c1.219-1.219,3.335-16.78,4-29.423 c0.835-15.87,5.221-15.626,74.018-15.962c-0.453,5.041-1.711,19.907-2.507,24.344c-2.526,14.077-2.408,18.616,0.486,18.616 c4.73,0,5.126-31.845,5.591-43.677c32.511-2.77,30.934-5.52,26.307,19.933c-4.007,22.044-2.993,30.814,1.703,14.734 c4.051-13.875,3.105,3.595,5.889-36.814h26.303c-0.407,3.347-0.932,8.829-2.325,12.172c-1.918,4.6-4.665,23.375-3.658,25.003 c4.404,7.126,9.303-27.873,11.07-38.607c12.672,0,13.325,0.179,32.966-1.874c-3.773,35.43-5.89,41.729-3.047,43.497 c2.352,1.462,4.719-9.815,6.409-30.524c1.05-12.872,6.409-18.766,8.789-9.666c0.412,1.575,1.318,2.864,2.014,2.864 s1.265,1.933,1.265,4.296c0,4.649,3.523,5.929,6.933,2.518c2.615-2.615,4.796,1.333,3.949,7.148 c-0.496,3.406-0.126,4.654,1.38,4.654c1.132,0,2.074,0.805,2.093,1.79c0.124,6.405,1.919,17.763,2.987,18.903 c0.701,0.748,1.275,7.945,1.275,15.993c0,14.79,0.688,19.163,3.017,19.163c2.154,0,1.478-31.572-0.869-40.582 c-3.168-12.164-3.088-12.403,4.143-12.403c3.955,0,6.566,0.717,7.031,1.93c1.07,2.787,13.805,8.436,16.563,7.347 c2.66-1.05,0.505-2.465-7.581-9.277c23.206,0,23.382,0.55,24.952-3.58c1.664-4.377,4.583-4.521,11.017-0.545 c3.145,1.943,4.622,3.788,4.107,5.129c-2.515,6.549,2.911,8.052-9.006,7.353l-8.202-0.481 c-18.477,58.926-21.293,69.295-40.01,132.462c-11.101,37.466-11.293,32.679,17.034,37.077c12.724-12.1,18.816-22.52,20.048-26.172 c4.564-13.532,7.494-4.305,8.602,27.09c1.122,31.774,1.559,38.033,3.598,51.506c0.835,5.513,1.438,11.474,1.339,13.246 c-1.05,18.896-0.01,47.068,2.318,62.785c1.305,8.811-2.631,14.001-0.81,20.988c2.105,8.076,9.712,225.709,14.281,240.938 c1.546,5.152,1.892,15.852,2.175,21.268c-56.86,8.948-52.883,10.074-83.057,10.203c-27.094,0.116-25.478-0.335-41.64,11.618 c-39.164,28.964-57.755,24.254-131.635,40.641c-25.241,5.599-36.602,6.582-45.255,3.915c-16.591-5.113-24.977-4.243-52.668,5.462 c-15.222,5.336-31.688,5.305-42.775,9.359c-4.135,1.512-11.065,3.305-15.398,3.985c-11.882,1.864-11.152,4.37-12.237-42.009 c-0.308-13.144-1.535-17.889-4.634-17.915c-0.957-0.008-2.871-2.706-4.254-5.997c-2.683-6.383-1.843-8.241,3.744-8.287 c2.036-0.017,2.476-0.779,1.87-3.244c-0.435-1.772-1.242-12.069-1.794-22.882c-0.933-18.293-1.213-19.725-4.018-20.599 c-6.367-1.985-7.689-12.01-1.583-12.01h3.58c0-47.064,0.612-46.526-3.406-49.159c-3.815-2.5-4.902-6.648-5.866-22.384 c-0.47-7.672-0.114-11.303,1.267-12.888c1.994-2.291,0.091-21.363-2.377-23.814c-0.591-0.587-1.074-3.79-1.074-7.119 c0-6.275,1.45-7.791,7.456-7.791c2.54,0,2.802-0.614,1.981-4.654c-0.52-2.56-1.346-12.902-1.835-22.982 c-0.787-16.207-1.215-18.502-3.691-19.827c-2.293-1.227-2.645-2.474-1.939-6.884c1.655-10.346-7.015-33.006-12.627-33.006 c-1.971,0-4.539-1.494-6.05-3.521c-1.702-2.282-5.145-4.104-9.786-5.18c-9.967-2.31-20.712-6.918-28.64-8.354 c-8.563-1.551-7.685-3.416-20.032-5.913c-17.51-3.542-6.228-8.528-52.285-25.088c-9.336-3.358-24.124-4.122-25.845-5.885 c-1.369-1.402-1.843-54.974-0.545-61.526c0.526-2.655,0.248-4.881-0.681-5.455c-2.571-1.589-0.857-47.583-2.701-50.484 c-5.086-8-67.724-5.173-81.701,3.688c-2.047,1.298-1.214,10.745,3.274,37.125c1.482,8.714,1.622,13.046,0.522,16.202 c-1.272,3.65-1.062,4.717,1.384,6.995c4.133,3.85,2.971,10.773,7.54,34.362c3.039,15.688,3.097,20.785,3.443,26.161l-12.132,3.936 c-11.393,3.697-39.812,18.109-49.366,25.036c-28.395,20.582-64.929,15.995-151.975,29.529c-38.01,5.91-75.578,14.004-113.664,19.421 c-12.943,1.841-17.334,3.06-20.516,5.694c-5.889,4.875-5.674,2.072-11.028,5.851c-1.948,1.374-6.44,3.469-9.982,4.654 c-9.045,3.026-18.059,37.097-9.864,37.285c1.423,0.033,1.26,0.596-0.577,1.989c-2.378,1.803-2.456,3.427-1.088,22.509 c0.811,11.311,1.474,20.945,1.488,21.409c0.008,0.464,1.625,1.578,3.594,2.475c5.386,2.454,5.245,12.587-0.203,14.658 c-3.71,1.411-3.765,1.625-2.874,11.063c1.049,11.104,0.922,25.781,0.934,36.117c8.141,0,9.52-0.796,10.365,7.068 c0.319,2.966-0.447,3.687-5.117,4.825c-4.661,1.135-5.368,1.8-4.675,4.388c0.449,1.678,1.248,11.912,1.775,22.741 c0.81,16.661,1.31,19.694,3.243,19.712c6.929,0.066,7.95,13.595,1.1,14.571c-4.343,0.618-4.01,44.723,0.365,48.416 c2.787,2.352,2.594,14.32-0.231,14.32c-0.935,0-1.14,2.984-0.566,8.234c1.396,12.767,0.563,36.477,2.677,37.795 c1.973,1.23,2.591,12.94,0.798,15.146c-2.255,2.775,0.158,44.834,2.627,45.782c3.578,1.373,2.242,6.059-1.979,6.945 c-42.073,8.829-60.772,7.65-75.798,12.297c-3.3,1.02-7.526,0.795-15.334-0.818c-18.814-3.886-36.214-2.36-48.132,4.222 c-9.846,5.438-26.028,12.564-31.695,16.599c-13.36,9.513-39.346,5.945-61.942,11.439c-17.463,4.245-32.721,1.477-42.406,4.894 c-8.269,2.918-22.827,2.746-30.401-0.358c-4.702-1.927-10.252-2.506-24.016-2.506h-17.9c-62.228,35.024-65.038,22.448-110.266,32.97 c-20.882,4.858-19.793,3.682-34.969,3.493c-21.51-0.265-28.261-16.129-53.742-0.661c-11.869,7.206-35.612,16.921-48.938,20.026 c-23.591,5.498-14.461,9.329-40.468,9.329c-8.374,0-17.477,0.68-20.228,1.512c-8.563,2.588-37.748,3.363-53.078,1.409 c-13.823-1.761-30.382-0.386-34.983,2.906c-1.766,1.263-19.249,5.953-33.652,9.026c-10.199,2.176-36.765,5.818-52.269,7.164 c-78.6,6.827-88.07,30.972-88.07-1.905c0-11.671-0.229-12.679-3.05-13.417c-2.095-0.548-2.771-1.525-2.158-3.122 c0.49-1.278-0.118-4.277-1.352-6.663c-2.428-4.695-2.283-5.118,2.596-7.55c1.786-0.89,3.194-2.728,3.128-4.083 c-0.066-1.355-0.226-11.41-0.358-22.345c-0.223-18.572-0.427-19.93-3.103-20.63c-3.09-0.808-4.175-8.63-1.432-10.325 c3.646-2.253,0.922-47.398-2.921-48.403c-3.201-0.837-3.677-11.026-0.516-11.026c2.302,0,2.005-8.896,2.005-45.514 c-2.086-0.523-8.031-1.744-6.209-2.915c6.605-4.248,3.699-54.25,0.732-55.026c-2.392-0.625-2.504-1.64-1.327-11.981 c1.626-14.293,0.502-32.176-2.148-34.166c-1.081-0.812-2.327-2.445-2.77-3.628c-1.747-4.673-29.207-13.915-57.015-19.188 c-56.234-10.664-89.249-21.43-113.72-14.565c-24.47,6.866-83.082,13.847-122.974,25.944c-12.566,3.811-4.276,1.99-22.952-8.453 c-6.339-3.545-9.747-6.448-10.734-9.142c-6.912-18.87-32.046-12.371-42.206-16.612c-5.376-2.244-10.432-3.261-25.976-5.227 c-16.046-2.029-14.377-5.063-23.791-6.117c-10.4-1.166-31.65-7.333-130.98-29.066c-32.926-7.204-21.011-6.902-42.245-12.06 c-8.218-1.997-26.216-7.094-32.221-8.095c-6.495-1.082-7.665-2.868-15.036-3.928c-6.343-0.913-17.188-3.681-29.357-6.604 c-10.26-2.465-13.904-5.741-18.472-5.741c-6.162,0,4.864-0.134-79.56-17.873c-28.687-6.028-12.415-3.772-27.986-7.946 c-3.938-1.055-11.671-4.036-17.184-6.624c-15.97-7.495-46.803-9.862-60.523-4.646c-6.06,2.304-130.841,26.58-145.33,34.632 c-8.722,4.846-1.457,4.053-15.177,7.416c-18.293,4.483-13.281,13.002-12.981,29.088c0.129,6.906,7.442,12.096,19.837,14.078 c3.233,0.517,6.334,1.661,6.89,2.542c1.92,3.038,9.657,160.533,8.233,227.862c-6.343-0.278-13.084-0.299-22.196-2.726 c-13.629-3.629-30.517-7.032-37.949-7.648c-3.938-0.326-7.805-1.404-8.592-2.394c-4.671-5.874-27.495-7.744-38.483-3.153 c-14.638,6.116-60.508,14.154-70.182,15.262c-15.475,1.771-16.216,5.67-22.157,5.67c-6.034,0-26.461,7.059-42.528,8.445 c-7.496,0.646-13.649,2.099-17.586,4.151c-8.249,4.299-11.83,2.16-17.124,5.891c-6.62,4.664-72.086,15.645-81.209,16.536 c-12.791,1.25-22.156,5.381-54.99,11.725c-2.779-25.867-3.725-62.752-5.967-78.795c-1.603-11.467-1.059-12.551,8.046-16.029 c3.461-1.322,6.665-3.579,7.122-5.018c0.896-2.826,1.208-17.981,0.437-21.263c-0.265-1.126,2.017-3.439,5.19-5.263 c7.215-4.146,8.375-7.393,7.367-20.621c-2.719-35.723,1.995-42.357-10.934-45.839l-5.676-1.528c0-7.316,1.151-24.234-5.062-24.234 c-6.376,0,3.219-19.283,10.728-21.559c5.456-1.654,12.387-4.233,21.574-8.029c16.951-7.003,4.317-18.641-26.825-24.71 c-67.655-13.185-183.715-2.969-183.715,16.171c0,4.847,5.451,10.918,9.802,10.918c0.817,0,1.945,0.746,2.509,1.657 c0.722,1.169,0.009,1.367-2.421,0.671c-22.11-6.332-88.193-10.22-115.144-6.775c-6.301,0.805-17.9,2.184-25.776,3.065 c-30.447,3.403-52.269,12.429-52.269,21.621c0,2.737,7.782,9.833,10.783,9.833c4.799,0,9.013,3.333,9.72,7.686 c2.508,15.448,17.613,44.888,2.287,51.799c-10.375,4.681-10.352,4.582-10.389,35.708c-0.037,30.914,0.374,32.397,9.679,34.936 c2.427,0.662,4.242,1.97,4.033,2.906c-1.03,4.623,0.262,18.499,1.873,20.109c1.817,1.818,10.144,5.682,12.41,6.784l-0.1,48.516 c-0.117,56.784,2.242,50.334-21.392,58.477c-8.358,2.88-19.065,7.873-24.414,11.385c-20.434,13.42-20.202,6.895-29.575,11.793 c-16.098,8.414-38.665,0.824-39.467,24.23c-1.519,44.321-0.538,65.157,3.068,65.157c3.306,0,3.548,2.268,0.56,5.255 c-3.617,3.617-2.694,53.458,0.989,53.458c3.537,0,3.532,7.027-0.014,11.621c-3.549,4.598-1.852,43.44,2.021,46.273 c1.981,1.448,2.083,2.841,0.74,10.105c-2.153,11.646-2.038,45.834,0.166,49.363c1.347,2.156,1.338,4.269-0.04,9.646 c-2.035,7.941,0.206,46.947,2.882,50.172c1.956,2.358,0.16,12.065-0.38,16.142h4989.275 C4999.958,4117.596,5000.326,2861.559,4998.884,2861.594z M4287.541,2453.585c0-3.066,17.478-8.108,43.853-12.652 c9.355-1.611,13.712,14.128,5.91,21.351c-6.921,6.406-24.425,14.073-32.136,14.074c-5.444,0.001-3.173,2.129-10.79,3.331 c-7.355,1.161-27.292,6.133-32.974,7.906c-7.611,2.375-7.209-1.821-8.231-23.13 C4257.203,2463.59,4287.541,2457.566,4287.541,2453.585z M4241.187,2507.159c0.553,8.889-0.114,9.029-18.802,3.923 c-19.151-5.231-19.141-5.278,2.182-9.766C4241.43,2497.766,4240.583,2497.469,4241.187,2507.159z M4167.354,2485.482 c22.822-5.048,68.744-17.414,69.92-16.15c0.375,0.404,0.899,4.7,2.528,23.495c-61.239,13.653-44.878,9.155-77.96,1.146 C4149.129,2490.895,4150.177,2489.281,4167.354,2485.482z M3891.713,1797.511c3.428-1.834,2.49-0.447,2.49,1.007 c-0.276,1.435-1.623,2.824-2.992,3.088C3887.744,1802.273,3888.091,1799.449,3891.713,1797.511z M4042.665,1023.039 c20.581,2.932,37.462,3.701,123.154,14.868c62.675,8.17,99.998,6.588,84.62,30.058c-1.463,2.233-3.543,3.49-5.534,3.346 c-14.343-1.042-84.955-9.419-88.31-10.478c-5.852-1.846-83.735-10.792-123.238-16.482c-27.897-4.017-30.073-1.803-30.073-14.615 C4003.284,1017.309,4002.902,1017.374,4042.665,1023.039z M3955.695,945.782c23.088,2.021,26.885,1.779,31.73,1.817 c1.002,72.431,0.398,28.753,0.823,59.505c-11.416-0.396-137.691-15.504-137.917-15.531c-3.365-0.402-0.303-2.955,8.744-7.289 c15.844-7.591,51.343-27.77,70.127-36.903C3935.929,944.11,3936.321,944.086,3955.695,945.782z M3954.237,934.128 c10.268-5.306,31.595-17.244,32.582-17.244c0.331,0,0.713,1.716,0.713,24.344C3946.174,940.111,3942.17,940.364,3954.237,934.128z M3796.395,1151.378c1.058,13.376,2.68,11.971-12.427,10.767c-8.317-0.663-16.199-11.425-22.18-30.288 c-2.418-7.626-4.414-35.97-2.533-35.97c2.947,0,32.861,4.649,33.436,5.196C3793.366,1101.726,3796.522,1151.378,3796.395,1151.378z M3790.467,1091.361c-12.022-1.019-19.068-2.262-32.322-4.37l0.939-5.003c3.293-17.555,17.697-40.625,26.67-42.717l3.719-0.867 C3792.321,1093.49,3794.277,1091.684,3790.467,1091.361z M3593.542,997.849c-0.149-0.149-220.227-16.524-220.378-16.524 c-11.396,0-19.947-13.724-13.794-22.138c2.271-3.105-0.414-3.237,79.339,3.477c0.146,0.012,153.142,12.491,154.434,14.58 c0.414,0.669,2.003,1.217,3.532,1.217c2.441,0,2.78,1.041,2.78,8.542C3599.453,994.8,3596.292,1000.599,3593.542,997.849z M3687.523,1005.727c-48.884-4.381-72.487-5.382-74.319-7.215c-0.789-0.789-2.595-1.435-4.013-1.435 c-2.932,0-2.578-2.312-2.578-18.533c59.653,2.127,28.705,2.254,88.07,6.453c39.831,2.817,34.543,3.034,57.281,4.331 c16.237,0.926,35.084,6.246,35.084,9.902c0,2.385-3.199,6.44-5.082,6.44c-2.055,0-3.589,0.607-10.292,4.073h0 C3766.766,1012.279,3753.634,1011.652,3687.523,1005.727z M3700.052,1071.066c24.186-12.239,58.986-33.888,66.589-33.891 c5.581-0.002,5.593,0.072,1.122,6.831c-5.717,8.64-15.084,31.565-15.084,36.916c0,5.227,0.27,5.11-9.308,4.024 c-15.14-1.717-33.976-5.953-44.751-6.497C3690.47,1078.038,3690.926,1075.685,3700.052,1071.066z M3606.613,1124.193 c4.653-2.344,24.077-14.83,41.529-23.399c21.327-10.474,19.272-19.661,73.033-10.943c16.593,2.691,21.666,3.31,29.357,3.888 l-0.368,7.002c-1.407,26.828,13.954,52.644,16.592,58.513c0.989,2.199,5.109,0.677-177.327-17.339 C3575.7,1140.559,3577.208,1139.004,3606.613,1124.193z M3788.479,1186.339c0,2.507-2.631,0.136-105.97-10.263 c-21.047-2.117-3.213-0.514-68.021-7.873c-80.02-9.086-82.669-3.38-48.965-20.962c240.649,28.227,199.134,15.401,217.586,32.829 C3786.063,1182.86,3788.479,1185.681,3788.479,1186.339L3788.479,1186.339z M3790.916,1178.66c-8.14-9.001-8.101-8.547-0.646-7.426 c7.526,1.133,7.698,1.308,8.633,8.784C3799.877,1187.817,3799.073,1187.679,3790.916,1178.66z M3809.752,917.188 c-12.506-5.913-13.936-17.624-2.298-18.811c3.688-0.377,0.674-5.838-3.222-5.838c-7.475,0-2.463-3.473-5.555-13.288 c-1.978-6.276-4.001-56.118-5.927-70.485c-2.02-15.073-1.311-29.353-2.962-35.801c-1.807-7.059-0.821-25.951-15.422-189.743 c18.13,0,6.997,1.582,29.865,4.159c30.663,3.456,35.983,5.842,61.577,8.893c40.538,4.828,74.26,10.712,87.711,11.881 c6.289,0.548,8.968,0.241,12.116,3.479c2.51,2.582,14.214,6.562,16.718,5.685c4.25-1.488,3.922,26.577,5.6,276.198l-5.267,4.882 c-5.052,4.682-23.128,15.339-36.686,21.627c-3.544,1.644-6.659,3.543-6.921,4.22c-0.262,0.677-1.088,1.231-1.834,1.231 c-2.682,0-19.593,11.579-25.384,11.219c-10.857-0.678-9.493-1.112-52.499-3.935c-16.886-1.109-27.752-2.422-28.641-3.461 C3828.897,927.161,3820.093,922.077,3809.752,917.188z M3839.317,937.662c15.26,0.022,63.837,3.963,63.397,5.144 c-0.213,0.573-6.51,4.215-13.992,8.095c-84.709,43.926-56.417,32.827-65.157,17.535 C3814.677,952.89,3822.484,937.638,3839.317,937.662z M3824.242,1002.826c13.473-7.211,31.744-1.876,118.181,7.886 c23.103,2.609,34.246,4.024,44.895,5.344c1.061,24.101,0.071,21.304,0.214,21.304c-0.143,0-6.808,1.12-7.638,0.291 c-1.265-1.266-52.795-5.888-90.455-11.858c-4.726-0.749-12.781-1.736-17.9-2.194c-19.135-1.71-28.337-4.635-22.105-7.026 c2.909-1.116,1.165-4.288-2.026-2.944c-3.847,1.621-13.28,0.658-15.522-1.584c-1.144-1.144-3.968-2.08-6.274-2.08 C3820.583,1009.965,3819.682,1005.266,3824.242,1002.826z M3826.231,1037.392c1.29-1.425,2.345-3.317,2.345-4.202 c0-2.209,8.14-1.112,19.333-2.495c11.703-1.446,128.01,14.9,139.622,16.633c0,52.047,0.282,71-1.79,70.956 c-1.523-0.033-153.386-19.995-157.881-20.375C3824.138,1043.656,3823.529,1040.378,3826.231,1037.392z M3831.889,1163.192 c-4.666-62.519-5.731-57.516,11.748-55.186c82.716,11.026,73.125,10.378,90.193,12.304c20.465,2.309,34.475,4.63,53.701,7.714 v52.081l-8.396-0.761c-9.836-0.892-9.393,1.13-9.393,0.852c-0.921,1.49-12.481,2.352-13.836,1.032 c-1.006-0.981-76.348-8.756-76.494-8.771C3835.708,1167.926,3832.192,1167.241,3831.889,1163.192z M3489.189,1429.554 c-2.682-5.011,0.565-3.118,8.589,5.006C3513.05,1450.023,3494.599,1439.661,3489.189,1429.554z M3533.686,1493.99 c-2.025,0-8.699-6.482-8.699-8.449c0-2.554,4.875,0.489,7.706,4.811C3532.844,1490.352,3534.888,1493.99,3533.686,1493.99z M3569.352,1546.862c-4.217-0.693-10.968-6.553-9.379-8.142C3561.223,1537.469,3570.117,1546.986,3569.352,1546.862z M3594.154,1591.892c1.081-1.081,11.026,7.74,11.026,9.781C3605.18,1606.063,3592.783,1593.263,3594.154,1591.892z M3632.802,1652.452c-2.53-1.698-4.624-4.215-4.654-5.593c-0.06-2.73,0.745-2.12,7.685,5.827 C3639.136,1656.467,3638.739,1656.437,3632.802,1652.452z M3709.947,1765.001c1.557,2.166,2.625,3.914,2.375,3.885 c-1.875-0.218-11.13-8.192-11.159-9.613c-0.02-0.984-0.681-1.79-1.469-1.79c-0.788,0-1.432-1.087-1.432-2.416 C3698.262,1752.327,3704.882,1757.955,3709.947,1765.001z M3672.089,1709.668c-0.88,0.88-9.627-7.822-9.627-9.577 C3662.462,1694.342,3673.095,1708.662,3672.089,1709.668z M3724.483,1833.89c-4.844,4.844-24.573-9.65-31.599-23.214 c-8.493-16.398-11.904-44.601-5.393-44.601c3.216,0,3.404,0.319,2.001,3.399c-4.292,9.422,12.929,18.087,28.068,41.752 c5.132,8.022,5.779,11.412,1.501,7.862c-4.153-3.446-2.473,3.837,2.081,9.023C3722.367,1829.508,3724.483,1832.034,3724.483,1833.89 z M3327.368,2034.664c0-2.828,1.868-3.743,4.364-2.138c1.809,1.164,1.801,1.52-0.069,2.748h0.001 C3328.656,2037.248,3327.368,2037.065,3327.368,2034.664z M3333.454,2076.566c-2.217,0.315-3.222-0.275-3.222-1.89 s1.005-2.205,3.222-1.89C3337.72,2073.392,3337.737,2075.957,3333.454,2076.566z M3345.767,2035.859 c-2.89,2.024-3.021,2.929-2.126,14.585c0.836,10.877,0.64,12.675-1.573,14.416c-8.098,6.368-10.405,4.228-10.405-9.655 c0-11.412,8.005-24.205,15.146-24.205C3349.805,2030.999,3349.292,2033.39,3345.767,2035.859z M3788.609,2956.228 c1.779-5.94,1.562-5.204,12.905-4.122c-0.803,12.406,0.154,15.324-11.242,13.024 C3786.608,2964.391,3786.437,2963.477,3788.609,2956.228z M3783.114,2974.568c2.52-9.927,18.256-7.372,18.256,2.964 c0,3.754-0.624,5.7-1.79,5.58c-2.251-0.231-14.828-2.424-17.885-2.95L3783.114,2974.568z M3786.932,2984.897 c13.669,0.353,15.048,1.156,15.104,8.785c0.045,6.26-0.555,7.864-2.293,6.126c-0.369-0.369-5.148-1.056-10.621-1.525 C3774.194,2997.003,3772.151,2984.516,3786.932,2984.897z M3780.919,3058.848c-1.79,6.704-2.211,6.832-14.276,4.317 c-6.05-1.261-6.8-1.836-6.78-5.201c0.04-6.917,1.649-7.851,12.085-7.013C3783.454,3051.874,3782.908,3051.394,3780.919,3058.848z M3776.832,3047.522c-6.159-0.212-14.148-1.158-14.105-1.671c0.449-5.428,4.379-13.102,6.593-12.874 c5.006,0.516,23.458,3.559,23.458,3.868c0,0.169-2.181,2.688-4.847,5.599C3783.661,3047.106,3782.337,3047.711,3776.832,3047.522z M3787.049,3056.329c-1.099,1.7-1.388,1.402-1.388-1.432c0-1.969,0.625-4.547,1.388-5.728c1.099-1.7,1.388-1.402,1.388,1.432 C3788.438,3052.57,3787.813,3055.148,3787.049,3056.329z M3795.383,3043.687c0,3.83-6.073,6.724-3.168-0.845 C3793.51,3039.465,3795.91,3040.105,3795.383,3043.687z M3798.637,3030.994L3798.637,3030.994 c-6.629,6.629-31.325-1.076-28.942-9.03l1.72-5.743l8.175,0.939C3797.287,3019.194,3804.905,3024.726,3798.637,3030.994z M3785.171,3014.778c-14.679-3.334-12.948-1.604-9.344-14.655c14.474,2.221,14.947,2.005,26.975,1.647 C3802.802,3019.919,3805.455,3019.385,3785.171,3014.778z M3803.053,2943.134L3803.053,2943.134 c-0.524,5.502-0.793,5.793-5.329,5.793c-6.092,0-6.783-1.258-4.434-8.069C3796.764,2930.783,3804.069,2932.486,3803.053,2943.134z M3808.262,2924.216c-2.408,2.802-2.906,5.021-3.049,5.021c-1.482,4.18-10.067,3.479-8.76-0.716 c3.022-9.702,3.245-9.945,8.147-8.895C3810.601,2920.911,3810.842,2921.213,3808.262,2924.216z M3814.735,2912.641 c-1.417,5.99-2.225,6.386-8.711,4.273c-5.098-1.661-5.414-2.612-3.082-9.302C3806.398,2897.698,3817.181,2902.296,3814.735,2912.641 z M158.582,3476.265l5.622-0.754c-0.877,12.245-0.31,12.547-5.196,12.769C142.62,3489.022,142.246,3478.456,158.582,3476.265z M148.369,3515.181c-39.097,3.039-38.746,19.961-42.523-2.036c-0.338-1.969-1.345-5.412-2.238-7.65 c-1.859-4.663,0.24-7.023,5.267-5.919c8.153,1.79,34.269,4.88,43.689,5.169C174.977,3505.432,171.79,3513.361,148.369,3515.181z M339.294,3446.503l6.774-1.016c-0.922,12.858,0.167,14.611-12.63,11.475C322.542,3454.292,325.767,3448.531,339.294,3446.503z M260.746,3499.117c16.968-5.69,22.131-5.852,22.131-0.697c0,15.98-1.614,21.46-7.253,24.629c-5.722,3.216-5.899,6.295-5.899,6.132 c-0.795,5.396-4.032,4.771-4.032-0.777c0-5.084-5.046-10.964-9.408-10.964C242.639,3517.441,245.887,3504.1,260.746,3499.117z M269.989,3545.906c0,1.479-0.966,3.491-2.148,4.471c-1.831,1.52-2.148,1.124-2.148-2.689 C265.693,3541.139,269.989,3542.86,269.989,3545.906z M190.326,3477.703c-1.021-3.808,5.343-4.283,23.068-1.721 c14.656,2.118,16.518,6.567,4.481,10.706c0.143-0.036-1.526,1.528-26.645,3.882C191.215,3487.046,191.33,3481.449,190.326,3477.703z M227.754,3508.402c-1.814,2.589-3.642,2.889-17.855,2.938c-21.164,0.073-24.814-4.212-5.067-5.948 C221.8,3503.901,233.203,3500.622,227.754,3508.402L227.754,3508.402z M298.626,3711.18c-1.372,1.248-22.378,8.706-34.715,14.658 c-11.651,5.621-10.243,9.09-13.969-34.405c-1.619-18.903-3.296-35.511-3.727-36.906c-0.613-1.986,0.937-3.298,7.121-6.033 c9.126-4.036,10.812-6.464,11.109-16.007c0.242-7.749,1.866-11.939,4.629-11.939c12.219,0,6.833-30.96,10.639-30.646 c5.042,0.417,5.84-1.082,5.715,10.955c-0.18,17.343,1.097,16.342,14.159,21.33C299.412,3684.605,299.24,3710.621,298.626,3711.18z M339.931,3483.073c-31.42,0-64.068,18.988-47.029,3.806c6.122-5.455,2.275-15.262-5.987-15.262c-3.644,0-4.497-2.525-1.207-3.57 c1.58-0.501,3.401-0.584,4.047-0.185c2.708,1.674,29.165,5.067,41.095,5.27c15.524,0.265,17.9,0.799,17.9,4.023 C348.751,3481.067,345.762,3483.073,339.931,3483.073z M373.812,3445.124l11.287,0.418c24.371,0.902,28.564,8.88,6.16,11.721 c0.143-0.072-11.565,1.552-14.6,2.313C372.256,3460.681,372.921,3460.73,373.812,3445.124z M422.614,3476.416 c-0.892,4.464-2.446,6.013-2.446,6.162c-1.563,1.884-4.449,2.545-5.69,1.304c-1.289-1.289-9.657-2.009-24.657-2.124 c-15.219-0.116-15.486-0.175-15.036-3.34c0.529-3.722,1.627-3.579,48.676-6.237L422.614,3476.416z M4067.725,2534.375 c-61.729,16.356-52.989,14.566-68.737,18.809c-23.487,6.328-30.282,8.943-30.789,8.943c-18.471,5.697-33.685,6.215-37.151,1.266 c-5.72-8.167,1.438-20.061,13.523-22.471c9.069-1.808,14.111-3.689,46.541-11.671c74.197-18.261,77.679-23.072,94.793-15.764 c5.667,2.42,11.351,4.4,12.63,4.4C4113.326,2517.887,4097.021,2526.613,4067.725,2534.375z M4120.733,2503.524 c-1.746,3.264-11.858,9.063-15.205,11.122c-1.962-0.511-19.594-5.161-20.977-5.268c-5.585-0.429,0.652-4.204,9.308-5.633 C4116.483,2500.01,4124.868,2495.798,4120.733,2503.524z M4041.61,2476.238c2.91,1.535,46.449,13.009,49.364,13.009 c10.676,0,6.073,4.05-8.664,7.621l0,0.007c-18.769,4.543-16.814,4.543-23.785-0.014c-14.206-9.289-33.76-16.885-33.76-20.677 C4024.764,2474.519,4038.435,2474.563,4041.61,2476.238z M3979.261,2442.623c-1.159,1.158-4.996,0.83-7.482-0.64 c-1.181-0.699-4.606-1.665-7.61-2.146c-9.667-1.549-4.01-5.786,8.37-6.27C3976.711,2433.405,3981.725,2440.159,3979.261,2442.623z M3922.732,2133.697c-2.994-2.035-3.038-2.264-0.61-3.233c2.504-1,15.288,9.48,15.288,12.531c0,1.911-4.91,1.261-8.274-1.095 C3924.171,2138.422,3927.745,2137.103,3922.732,2133.697z M3987.49,2189.376c0.08,3.035-4.469,10.563-8.115,13.431 c0.143,0-2.981,2.899-10.521,2.899h-6.834c-38.934-39.66-36.646-35.046-29.002-40.455c6.938-4.909,16.807-5.331,25.156-1.074 c6.72,3.426,6.444,3.395,6.444,0.716c0-3.452,2.044-2.49,4.867,2.289C3973.23,2173.52,3987.43,2187.119,3987.49,2189.376z M3964.675,2139.189c10.639-8.091,9.2-8.279,20.903,2.73c0,0.144-1.024-0.963,9.829,9.247 C3951.146,2151.305,3946.958,2152.663,3964.675,2139.189z M3913.287,2046.586c10.57-7.973,98.223-1.204,107.267-0.55 c-16.986,8.717-33.36,16.468-23.418,16.468c5.359,0,27.766-12.988,34.073-16.468c43.73,0.317,49.878-0.454,50.518,7.281 c0.438,5.285,1.119,5.714,5.421,3.411c2.83-1.514,4.271-1.585,6.315-0.308c2.699,1.686,5.342-1.151,3.639-3.906 c-1.83-2.962,3.576-4.291,13.903-3.418c25.708,2.173-4.396,10.36-5.714,14.483c-1.02,3.189,6.404,1.961,15.217-2.517 c4.662-2.369,9.995-4.141,11.852-3.938c2.507,0.274,3.49-0.422,3.819-2.707c1.054-7.319,84.771-6.847,84.771,0.478 c0,1.872-0.967,3.775-2.148,4.228c-1.181,0.454-2.148,2.044-2.148,3.535c0,1.491-0.645,2.711-1.432,2.711 c-3.697,0-0.882,2.736,3.222,3.131l4.654,0.449v38.665c-4.365,9.216-13.691,33.268-35.852,43.859 c2.723,2.042-42.537,5.821-103.053,2.65c-56.662-2.968-83.773,1.755-83.773-7.644c0-0.982-2.312-4.007-5.138-6.721 c-7.431-7.138-11.206-14.88-8.549-17.536c3.943-3.943-2.951-11.278-9.594-10.207c-6.703,1.08-12.794-5.56-67.202-62.901 L3913.287,2046.586z M3905.189,2042.455c1.177-1.904,3.58-1.857,3.58,0C3908.77,2044.366,3904.019,2044.348,3905.189,2042.455z M3959.69,2112.191c7.824,8.757,7.91,8.2-2.569,16.691c-9.255,7.499-32.686-5.376-25.513-14.019 c1.687-2.032-1.969-6.887-16.108-21.394c-7.699-7.899-3.824-7.152-2.123-5.451c2.114,2.114,5.417,2.21,5.417,0.157 c0-0.845-5.155-6.92-11.456-13.499c-12.375-12.922-12.919-13.719-8.592-12.587c3.148,0.823,3.781-0.96,1.242-3.499 c-2.433-2.433-0.35-6.13,3.367-5.974C3909.232,2052.864,3947.398,2098.431,3959.69,2112.191z M3891.227,2041.992 c2.912-1.714,11.006,4.613,8.766,6.853c-1.274,1.274-7.869,2.265-8.809,1.324C3889.825,2048.81,3889.857,2042.799,3891.227,2041.992 z M3882.278,2434.328c0.459,7.87,1.276,14.741-0.999,15.375c-2.76,0.771-16.149,3.456-20.84,4.673 c-4.376,1.136-3.494,3.559-4.151-25.567C3866.158,2430.784,3867.896,2431.184,3882.278,2434.328z M3860.027,2100.094 c0.109,8.002-21.235-15.189-36.463-39.618c-7.437-11.929-19.559-19.896,8.957-19.588c15.247,0.165,18.246,1.995,11.161,6.809 C3817.926,2065.2,3859.878,2089.093,3860.027,2100.094z M3859.542,2085.774c1.207,6.203-1.405,4.71-10.79-6.168 c-10.662-12.356-11.654-18.244-4.313-25.585C3860.188,2038.273,3856.456,2069.906,3859.542,2085.774z M3768.791,1820.031 c7.389-6.958,17.896-13.689,31.161-25.316c4.942-4.332,10.343-8.797,12.003-9.923c4.437-3.009,20.124-16.394,20.679-17.643 c1.731-3.895,4.359-0.165,5.242,7.442c1.204,10.379,0.845,11.028-6.801,12.274c-7.51,1.224-13.955,7.528-13.955,13.649 c0,4.478-6.874,10.101-14.32,11.714c-4.766,1.032-30.114,9.169-33.294,10.436 C3766.585,1823.827,3766.214,1822.458,3768.791,1820.031z M3758.958,1838.079c0.443-0.443,3.468,1.602,6.723,4.542 c7.313,6.606,11.648,4.965,5.057-1.915c-6.125-6.393-4.822-4.365,34.673-15.936c13.19-3.864,14.467-3.415,13.905,4.889 c-0.951,14.054,10.383,12.218,23.134,9.319c5.139,88.544,10.133,146.411,9.99,146.554c1.552,15.016-2.95,10.309-17.691-18.495 c-2.082-4.068-5.128-8.011-6.769-8.762c-13.584-6.214-22.396-17.746-18.905-24.743c3.094-6.202,2.927-8.078-0.904-10.119 c-15.671-8.347-27.48-23.296-25.953-32.851c1.202-7.514,3.218-7.111,11.211,2.245c3.701,4.332,7.434,7.876,8.295,7.876 c0.862,0,2.749,1.07,4.194,2.378c14.069,12.732,0.278-6.247-19.133-26.33c-9.307-9.63-16.922-18.411-16.922-19.515 c0-1.104-0.937-2.785-2.083-3.735C3764.859,1851.059,3757.984,1839.053,3758.958,1838.079z M3772.727,1871.049 c0,4.392-14.108-9.028-8.86-9.028C3765.261,1862.02,3772.727,1869.628,3772.727,1871.049L3772.727,1871.049z M3738.1,1819.308 c-5.607-4.073-9.463-9.621-7.825-11.259c1.029-1.029,15.244,12.193,15.244,14.178l0,0 C3745.519,1824.08,3743.662,1823.349,3738.1,1819.308z M3746.982,1862.439c0.032-2.588,5.584,2.967,5.665,5.668 C3752.647,1871.041,3746.927,1866.997,3746.982,1862.439z M3771.279,1951.522c-8.098-31.541-7.307-23.672-9.974-35.085 c-2.655-11.359-3.495-8.709-4.739-14.32c-0.436-1.969-2.406-8.574-4.377-14.678c-4.153-12.858-3.622-13.472,3.667-4.239 c8.345,10.57,14.614,16.053,11.779,16.053c-3.112,0-2.485,4.843,1.155,8.917c13.969,15.637,18.667,21.736,17.135,22.246 c-3.624,1.208-1.477,6.382,6.043,14.561c6.004,6.531,7.755,9.457,7.661,12.798c-0.302,10.65,9.623,11.863,13.966,24.78 c3.814,11.343,15.403,19.207,12.206,21.182c-2.248,1.39-0.507,5.011,4.794,9.969c4.48,4.191,4.536,4.953,0.75,10.269l0.001,0 c-3.429,4.816-29.975,6.725-29.975,2.155c0-1.102-2.255-5.356-5.012-9.452c-6.215-9.235-6.247-8.782,0.976-13.768 c6.396-4.415,2.749-7.327-4.391-3.505c-1.563,0.836-3.461,1.52-4.219,1.52C3786.397,2000.927,3777.476,1975.659,3771.279,1951.522z M3777.864,2015.572c8.763-5.559,9.591-5.63,12.047-1.041c1.054,1.969,2.451,3.58,3.106,3.58s1.19,0.888,1.19,1.973 c0,2.812,4.296,4.938,4.296,6.795c0,0.691-7.089,1.257-15.752,1.257C3762.928,2028.135,3761.965,2025.657,3777.864,2015.572z M3401.024,2006.176c1.18-9.444,10.004-16.706,20.299-16.706c0.235,0,0.779,2.255,1.208,5.012 c2.532,16.253,2.81,14.675-3.103,17.672C3417.807,2012.154,3398.609,2025.512,3401.024,2006.176z M3413.547,2036.369 c0.522-3.673,2.39-3.349,13.346-4.071C3418.777,2037.889,3412.638,2042.77,3413.547,2036.369z M3766.227,2167.562 c-18.703-5.137-59.554-2.218-84.841,6.063c-8.707,2.851-14.883,1.405-16.885,3.407c-1.423,1.423-17.886,2.709-17.828,2.853 c-76.709,6.789-125.018-41.482-129.93-41.482c-0.847,0-1.755-0.545-2.018-1.211c-1.311-3.325-17.067-10.058-42.042-35.201 c-24.152-24.316-50.137-48.307-54.632-50.44c-8.962-4.253,9.798-16.491,27.865-18.178c13.54-1.264,13.595,0.181,0.258,6.798 c-6.541,3.245-12.158,6.698-12.483,7.673c-0.924,2.773,7.938,2.169,12.315-0.839c13.246-9.103,22.136-12.247,36.38-12.866 c18.82-0.818,18.415,0.271-3.58,9.621c-13.962,5.935-3.915,9.663,6.802,3.451c17.584-10.192,22.121-11.605,39.739-12.375 c19.991-0.874,20.336-0.405,5.129,6.972c-6.433,3.121-11.965,6.477-12.292,7.458c-0.788,2.364,7.896,2.344,12.048-0.029 c3.862-2.207,20.552-11.712,24.465-13.941c42.454,0,45.826-1.069,26.842,7.876c-12.458,5.871-15.416,9.308-8.008,9.308 c3.904,0,18.327-6.638,23.058-10.612c7.419-6.232,15.727-5.654,59.429-4.888c-11.528,5.502-26.493,12.482-26.493,14.072 c0,2.847,8.828,1.331,16.697-2.868c12.404-6.62,12.701-6.161,16.231,25.06c6.087,53.845,37.619,82.192,94.522,84.976l19.332,0.946 C3777.315,2171.33,3778.902,2171.043,3766.227,2167.562z M3780.638,2145.285c-48.949,22.303-106.721-26.698-106.721-90.519v-18.479 c11.05,0.594,32.997,1.872,43.902,1.872c11.891,0,11.427,0.979-3.876,8.177c-13.377,6.293-16.775,10.024-7.802,8.568 c2.758-0.448,10.652-3.98,17.542-7.851c15.545-8.732,19.463-9.297,55.536-8.014c31.713,1.128,32.02,1.301,16.364,9.172 c-20.206,10.159-7.252,9.52,5.37,3.058c8.381-4.291,9.288-4.027,14.019,4.073c2.3,3.938,4.616,7.16,5.146,7.16 c0.531,0,1.357,1.128,1.838,2.506c1.176,3.372,16.09,24.481,30.188,37.089c9.456,8.456,13.886,21.431,7.58,22.2 c-4.168,0.508-2.279,0.804-9.497,1.049c-3.577,0.122-6.107,1.505-9.679,5.292c-2.659,2.82-5.339,4.914-5.955,4.654 c-1.877-0.793-22.456-23.075-25.897-28.04c-3.467-5.003-6.02-5.806-8.594-2.705c-1.283,1.546,2.384,6.069,17.703,21.838 c2.623,2.7,20.804,21.624,19.342,20.893c0.056,2.511-50.187,0.433-51.786-2.142 C3784.664,2144.02,3783.323,2144.061,3780.638,2145.285z M3834.196,2290.195c-7.605-48.38-11.272-63.246-20.571-83.389 c-6.519-14.121-20.105-30.121-27.868-32.817c-1.942-0.675,0.191-11.852,0.622-14.824h51.506 c1.187,18.341,0.175,17.537,27.173,18.616c2.466,37.649,7.365,112.951,9.868,148.215c2.851,40.169,4.468,28.254-25.234,36.714 c-2.992,0.852-3.22,0.238-5.391-14.518C3837.829,2304.207,3839.205,2322.065,3834.196,2290.195z M3837.169,2406.201 c-5.58-1.86-11.456-2.426-11.456-4.581c0-3.042-4.396-6.593-7.241-5.849c-1.53,0.4-2.783,1.297-2.783,1.992 c0,4.41-18.616-3.709-18.616-5.754c0-0.766-2.094-1.071-4.654-0.678c-5.41,0.831-21.436-2.552-22.144-4.675 c-0.746-2.24,31.083-8.07,46.738-11.392c37.757-8.011,24.601-7.205,32.367,27.702 C3849.524,2402.895,3852.263,2411.235,3837.169,2406.201z M3849.341,2368.281l10.74-2.389c18.94-4.212,17.157-6.885,19.479,29.2 c0.573,8.901,0.449,15.312-0.294,15.199c-9.454-1.436-8.502-1.279-24.793-4.467 C3851.377,2380.704,3850.129,2385.166,3849.341,2368.281z M3855.587,2681.604c-1.105-76.336-0.042-219.248,1.637-220.286 c2.834-1.752,24.606-6.651,25.522-5.743c3.55,3.517,4.01,49.424,0.496,49.424c-8.104,0-17.431,3.622-17.431,6.77 c0,3.752,1.403,3.913,9.308,1.065c8.509-3.066,12.124-2.741,12.417,1.115c2.444,32.18,19.298,302.932,20.288,314.045 c0.401,4.527-8.361,2.896-10.44,6.259c-0.546,0.884-3.846,2.09-7.333,2.681c-5.518,0.935-6.399,1.582-6.793,4.981l0,0 c-0.425,3.667-0.888,3.906-7.549,3.906c-8.691,0-9.095-0.744-11.282-20.764C3863.064,2812.583,3857.013,2780.135,3855.587,2681.604z M3851.293,2804.463L3851.293,2804.463c0.815,2.374-2.15,4.688-3.405,2.657C3846.494,2804.865,3850.588,2802.411,3851.293,2804.463z M3861.866,2842.241c0.299,2.351-0.587,2.943-4.943,3.305c-9.124,0.758-16.951-17.082-10.689-24.363 C3855.991,2809.838,3855.039,2788.529,3861.866,2842.241z M3837.423,2782.02c0.647-3.11,3.189-3.301,3.77-0.282 C3841.865,2785.226,3836.819,2784.92,3837.423,2782.02z M3826.259,2778.737c-0.717-3.586-0.424-4.518,1.424-4.518 c1.28,0,2.327,0.967,2.327,2.148c0,1.181,0.645,2.148,1.432,2.148c1.533,0,1.432,4.125,1.432,3.495v0l0,0 C3832.874,2789.504,3827.922,2787.053,3826.259,2778.737z M3829.948,2837.587c0.944,2.954,2.311,5.37,3.037,5.37 c0.727,0,1.321,0.967,1.321,2.148h0c0,1.579-1.644,2.148-6.204,2.148c-8.597,0-11.781-7.838-5.537-13.628 C3826.833,2829.668,3827.539,2830.047,3829.948,2837.587z M3832.874,2794.879c0-7.481,4.395-5.707,6.484,2.619 c0.543,2.161,0.433,3.855-0.243,3.764C3833.873,2800.554,3832.874,2799.531,3832.874,2794.879z M3837.17,2775.736 c0,1.529-0.601,2.78-1.335,2.78c-1.539,0-3.595-5.571-2.47-6.696C3834.748,2770.435,3837.17,2772.927,3837.17,2775.736z M3824.998,2748.443c1.432,0,2.148,1.432,2.148,4.296c0,2.363,0.644,4.296,1.432,4.296c0.788,0,1.432,1.057,1.432,2.348 s1.072,3.132,2.381,4.089c4.832,3.534-2.381,10.03-2.381,3.762c0-1.479-0.967-3.491-2.148-4.471s-2.148-3.315-2.148-5.188 s-0.645-3.405-1.432-3.405C3822.467,2754.171,3822.076,2748.443,3824.998,2748.443z M3824.064,2763.291 c-0.143,0.072,2.109,3.76,0.727,6.501c-1.519,3.01-6.229,2.222-6.259-1.047c-0.019-2.074-0.211-2.108-1.41-0.253 c-1.943,3.006-1.777-1.05-0.193-2.029c0.681-0.421,1.056-2.429,0.833-4.463C3817.207,2756.946,3821.438,2757.813,3824.064,2763.291z M3812.348,2753.216c-1.495-1.495-1.117-10.501,0.44-10.501c1.918,0,6.084,8.349,5.023,10.066v0 C3816.825,2754.377,3813.754,2754.622,3812.348,2753.216z M3821.418,2743.431c0,4.297-0.821,4.533-2.814,0.81 c-1.98-3.699-1.875-4.39,0.666-4.39C3820.606,2739.851,3821.418,2741.203,3821.418,2743.431z M3815.752,2733.368 c1.885-1.165,4.234,0.491,4.234,2.987l0,0c0,0.143-0.146,2.063-1.995,2.063C3815.563,2738.419,3813.846,2734.546,3815.752,2733.368z M3813.673,2726.072c1.693,4.412-0.003,7.462-1.871,3.364C3809.328,2724.006,3812.713,2723.571,3813.673,2726.072z M3807.813,2718.371c1.497-2.422,3.58-1.588,3.58,1.432C3811.394,2725.597,3805.996,2721.311,3807.813,2718.371z M3809.417,2732.163 c0.163,0,2.001,5.372,0.944,6.43c-1.391,1.391-6.127-5.833-6.127-9.345C3804.233,2725.168,3807.188,2726.831,3809.417,2732.163z M3798.771,2783.886c-3.154,2.515-3.878,2.282-5.764-1.858c-4.134-9.073,3.761-20.701,8.3-12.222 C3803.18,2773.308,3801.695,2781.553,3798.771,2783.886L3798.771,2783.886z M3783.023,2754.171c-3.66,0-6.571-7.021-5.303-12.794 c1.13-5.143,9.212-6.754,9.452-1.885c0.319,6.486-0.073,12.53,2.741,12.53c4.357,0,5.792,8.223,2.561,14.678h0 c-3.267,6.527-9.995-2.033-7.58-9.644C3785.598,2754.839,3785.166,2754.171,3783.023,2754.171z M3774.54,2723.02 c2.907,0.949,5.257,9.859,3.389,12.849h0c-2.231,3.572-3.352,3.21-6.018-1.945C3769.362,2728.997,3771.076,2721.888,3774.54,2723.02 z M3765.855,2719.516c-2.386-2.386-2.151-9.028,0.394-11.14c2.798-2.322,5.82,3.858,4.486,9.173 C3769.716,2721.609,3768.456,2722.117,3765.855,2719.516z M3778.018,2703.691c0.843,6.283-1.045,8.759-3.981,5.221 c-1.997-2.406-2.579-11.229-0.854-12.953C3774.97,2694.171,3777.224,2697.775,3778.018,2703.691z M3771.583,2675.288 c1.015-3.012,5.7,7.027,5.169,9.773C3776.083,2688.529,3770.757,2677.741,3771.583,2675.288z M3786.353,2711.751 c-2.412-5.773-2.69-7.719-1.093-7.666c1.182,0.039,6.086,9.289,6.086,11.48C3791.345,2718.814,3788.346,2716.523,3786.353,2711.751z M3792.011,2718.371c0.366,0,1.355,1.289,2.198,2.864c1.223,2.286,1.089,2.864-0.666,2.864 C3790.455,2724.099,3791.307,2718.371,3792.011,2718.371z M3786.351,2722.609c-4.584,14.445-11.051-9.183-5.472-11.02 C3783.196,2710.827,3787.403,2719.297,3786.351,2722.609z M3780.455,2698.68c-1.804-5.83-5.344-8.95-1.925-8.95 c1.268,0,5.655,8.297,5.655,10.694C3784.185,2702.337,3781.147,2700.917,3780.455,2698.68z M3798.45,2711.21 c1.286,0,4.352,7.717,4.352,10.954C3802.802,2729.959,3792.135,2711.21,3798.45,2711.21z M3802.626,2785.127l4.121-3.948 c2.192,6.288,5.444,13.49,0.595,17.879C3799.717,2805.959,3795.103,2792.335,3802.626,2785.127z M3804.899,2709.778 c3.088,0,2.236,5.728,1.533,5.728c-0.366,0-1.355-1.289-2.198-2.864C3803.01,2710.356,3803.145,2709.778,3804.899,2709.778z M3802.801,2701.186c0.788,0,1.432,1.611,1.432,3.58c0,3.749-0.331,4.204-1.909,2.625 C3800.838,2705.906,3801.201,2701.186,3802.801,2701.186z M3797.739,2694.026c3.088,0,2.236,5.728,1.533,5.728 c-0.366,0-1.355-1.289-2.198-2.864C3795.85,2694.604,3795.984,2694.026,3797.739,2694.026z M3796.141,2687.536 c1.067,2.78-1.932,4.802-1.932,0.846C3794.209,2684.925,3795.005,2684.576,3796.141,2687.536z M3794.162,2699.641 c1.944,4.694,1.532,9.176-0.698,7.594c-2.174-1.542-5.142-8.928-4.2-10.452C3790.731,2694.407,3792.397,2695.379,3794.162,2699.641 L3794.162,2699.641z M3792.777,2681.938c0.144,0-0.177,2.064-1.278,2.064c-1.581,0-3.121-3.716-2.003-4.833 C3790.749,2677.915,3792.777,2679.627,3792.777,2681.938z M3788.481,2671.114c1.894,0,1.892,4.296,0,4.296 C3786.586,2675.41,3786.589,2671.114,3788.481,2671.114z M3785.331,2667.74c-0.498,2.385-0.744,2.315-2.398-0.686 C3778.977,2659.877,3786.473,2662.266,3785.331,2667.74z M3783.239,2681.138c2.004,0,5.242,5.79,5.242,9.376 c0,3.37-1.967,2.381-4.654-2.341C3780.822,2682.893,3780.675,2681.138,3783.239,2681.138z M3777.308,2673.978 c-7.136-11.406,0.179-10.096,2.534-4.409C3782.814,2676.743,3781.006,2679.888,3777.308,2673.978z M3779.961,2656.725 c1.027-1.624,1.321-1.373,1.338,1.142c-0.143,0,0.195,5.546-1.947,2.08C3778.963,2659.319,3779.238,2657.869,3779.961,2656.725z M3775.951,2647.495c3.193-1.315,3.435,3.039,0.409,7.36c-1.154,1.647-1.782,3.31-1.397,3.694c0.385,0.385-0.16,1.415-1.212,2.287 c-1.5,1.245-2.28,0.571-3.615-3.119C3766.766,2648.401,3768.766,2650.453,3775.951,2647.495z M3768.719,2679.706 c1.866,0,4.665,11.594,3.052,12.643c-0.813,0.529-1.762,1.848-2.11,2.931c-0.36,1.121-1.743-0.494-3.21-3.747 C3763.945,2685.974,3765.147,2679.706,3768.719,2679.706z M3761.214,2692.594c2.117,0,4.142,7.897,2.69,10.491 c-1.906,3.406-4.513,2.95-6.399-1.118C3755.874,2698.448,3758.19,2692.594,3761.214,2692.594z M3733.385,2721.306 c-3.191-6.17-3.068-6.361,7.481-11.642c5.317-2.662,10.113-5.475,10.658-6.252c1.095-1.559,4.055,5.146,3.959,8.966 c-0.093,3.685-17.124,10.06-17.124,12.019C3738.36,2727.045,3735.403,2725.208,3733.385,2721.306z M3738.36,2731.315 c0-3.45,20.624-13.189,22.499-10.625c3.696,5.054,2.203,8.287-6.388,13.832C3743.796,2741.411,3738.36,2740.329,3738.36,2731.315z M3747.884,2753.864c-7.45-11.806-0.595-8.221,11.169-16.204c2.866-1.945,5.818-3.536,6.56-3.536c1.234,0,6.213,10.046,5.344,10.784 c-1.246,1.058-10.715,4.979-17.137,9.502C3749.967,2757.123,3749.939,2757.121,3747.884,2753.864z M3753.6,2766.701 c-2.437-5.808-2.279-6.067,5.924-9.695c7.746-3.426,10.326-6.358,13.038-8.906c7.29,11.958,8.572,11.104-4.503,17.917h0 C3755.588,2772.515,3756.03,2772.494,3753.6,2766.701z M3764.195,2788.539c-2.165-4.243-6.042-11.691-5.528-12.071 c0.604-0.445,21.442-11.507,22.334-11.982c4.431,11.282,5.562,11.796-1.828,15.431 C3774.165,2782.381,3768.071,2786.177,3764.195,2788.539z M3765.826,2792.224c0.561-0.41,20.179-11.404,21.334-11.955 c1.189-0.568,4.185,6.458,4.185,9.815c0,1.563-1.128,3.253-2.506,3.756c-3.152,1.15-14.665,8.598-17.512,10.397 C3769.162,2799.994,3765.311,2792.601,3765.826,2792.224z M3778.416,2819.849c-1.566-3.07-5.983-11.461-5.428-11.901 c1.561-1.237,18.08-10.433,20.126-11.205c4.686-1.767,5.86,8.219,5.392,7.985 C3798.505,2808.736,3794.249,2810.682,3778.416,2819.849z M3805.63,2822.99c-2.646,1.594-16.577,9.571-19.969,11.516 c-7.141-11.712-8.409-9.457,5.667-17.055l11.436-6.174C3807.17,2820.516,3808.041,2821.538,3805.63,2822.99z M3807.895,2813.998 c-3.955-5.646-0.167-15.434,5.971-15.434c2.873,0,3.769,11.176,1.208,15.083v0 C3812.217,2818.008,3810.754,2818.08,3807.895,2813.998z M3816.191,2817.383c4.008-3.766,5.87-2.339,7.361,5.645h0 c1.451,7.766-5.179,12.183-8.538,5.688C3812.051,2822.983,3812.247,2821.087,3816.191,2817.383z M3804.949,2848.608 c5.993-5.011,3.801-3.177,10.024-8.381l2.394,3.115c1.317,1.713,2.084,3.616,1.705,4.229 C3818.222,2848.948,3807.917,2848.625,3804.949,2848.608z M3811.313,2870.48c-1.531-1.311-2.784-3.207-2.784-4.213 s-0.698-1.83-1.551-1.83c-0.853,0-1.309-0.727-1.012-1.616c0.553-1.659,21.18-3.628,21.18-2.022c0,0.917-5.748,25.132-6.978,25.097 C3814.532,2885.758,3816.205,2874.669,3811.313,2870.48z M3822.775,2913.484c-1.167,4.203-7.277,8.539-7.063,5.012 c0.25-4.123,4.441-13.359,6.22-13.709C3824.661,2904.25,3824.837,2906.06,3822.775,2913.484z M3826.157,2902.028 c-0.144,0-1.209,2.6-4.223-0.413c-2.328-2.328,1.01-11.401,4.194-11.401C3828.553,2890.214,3828.572,2897.795,3826.157,2902.028z M3831.179,2882.696c-0.499,4.333-6.897,6.859-6.897,2.723c0-4.084,1.758-6.661,4.544-6.661 C3831.043,2878.758,3831.537,2879.585,3831.179,2882.696z M3835.118,2867.659c-1.062,8.075-1.944,9.681-4.75,8.652 c-2.307-0.846-2.363-12.16-0.072-14.451C3837.423,2854.733,3835.118,2868.558,3835.118,2867.659z M3841.038,2806.005 c4.793-0.706,6.826,7.074,3.091,11.824c-3.563,4.53-4.65,4.563-6.639,0.197C3835.316,2813.256,3837.294,2806.556,3841.038,2806.005z M3857.117,2912.273c-1.086,1.086-16.941,3.38-17.753,2.568c-0.39-0.39-0.455-2.063-0.144-3.719 c4.127-21.99,6.024-23.929,11.696-11.959C3855.552,2908.947,3858.042,2911.349,3857.117,2912.273L3857.117,2912.273z M3849.704,2891.124l-4.34-5.534l3.963-12.367c6.026-18.806,15.13-21.357,17.177-4.813c1.405,11.349,2.858,8.411,4.193,17.649 c1.112,7.689,4.555,16.068,6.583,21.405C3854.121,2916.416,3863.57,2908.808,3849.704,2891.124z M3883.878,2886.992 L3883.878,2886.992c0.097,35.767-4.824,12.423-13.347-22.42c-1.132-4.625,2.713-7.294,10.506-7.294c7.479,0,8.314,1.175,5.218,7.344 C3884.362,2868.39,3883.841,2873.298,3883.878,2886.992z M3895.89,2893.078c-1.188,0-3.367,4.868-3.516,7.856 c-0.039,0.777-1.198,1.63-2.577,1.895c-4.414,0.85-2.982-29.441,1.968-41.614c2.464-6.061,8.409-5.556,8.426,0.716 c0.007,2.56,0.423,8.073,0.925,12.252c0.846,7.044,0.677,7.659-2.314,8.441c-2.759,0.721-3.114,1.54-2.447,5.649 C3896.784,2890.916,3896.575,2893.078,3895.89,2893.078z M3908.414,2904.368c-0.197-0.091-1.646-0.439-3.222-0.772 c-9.864-2.086-9.629-1.962-7.827-4.133c3.144-3.788,11.407-2.708,11.407,1.491 C3908.772,2902.923,3908.611,2904.459,3908.414,2904.368z M3915.282,2403.112c0.421-1.325,0.094-2.824-0.725-3.331 c-1.943-1.201-0.886-11.614-2.884-34.321c-5.898-67.027-5.406-73.156,5.522-68.769c28.79,11.559,42.354,86.442,52.448,117.374 c4.589,14.064,4.984,13.02-5.959,15.786h0c-22.389,5.66-28.077,2.031-36.655,0.088c-6.661-1.509-5.347-6.565,1.706-6.565 c3.104,0,6.067-0.686,6.586-1.525s2.973-1.343,5.455-1.12c4.229,0.38,6.038-2.91,2.337-4.25c-0.685-0.248-0.889-1.375-0.456-2.506 c0.483-1.261-0.102-2.056-1.512-2.056c-1.266,0-2.301-0.967-2.301-2.148c0-2.963-4.296-2.485-4.296-0.716 C3934.547,2412.852,3913.671,2408.19,3915.282,2403.112z M3919.606,2483.519c-2.414-12.935-2.15-35.508,0.407-34.839 c1.515,0.396,3.187,0.019,3.716-0.837c1.836-2.971,9.98-1.508,43.605,7.836c69.98,19.447,29.553,17.354,25.099,20.843 c-2.365,1.853-61.273,15.236-61.273,16.399C3916.422,2497.266,3921.541,2493.894,3919.606,2483.519z M3924.026,2541.153 c-2.453-23.321-2.778-40.388-0.779-40.935c1.095-0.3,19.069-4.83,39.94-10.067c50.525-12.677,49.293-13.568,53.02-11.24 c4.659,2.91,3.919,0.049,10.715,5.233c2.517,1.92,10.472,6.526,17.678,10.237c13.617,7.012,15.303,8.683,9.879,9.788 c-18.497,3.769-87.283,23.288-93.44,25.183c-23.161,7.13-27.529,6.271-32.067,14.345v-0.004 C3924.931,2550.883,3925.057,2550.948,3924.026,2541.153z"/> </svg>